<svg xmlns="http://www.w3.org/2000/svg" viewBox="0 0 647.45 438.16"><defs><style>.cls-1{fill:#bde5b3;}.cls-2{fill:#82b378;}.cls-3{fill:#b8c5e8;}.cls-4{fill:#4d4add;}.cls-14,.cls-5{fill:#fff;}.cls-5{opacity:0.5;}.cls-6{fill:#dfebfd;}.cls-7{fill:#afcdfb;}.cls-8{fill:#cde0fb;}.cls-9{fill:#a8d29f;}.cls-10{fill:#f3c625;}.cls-11{fill:#cca321;}.cls-12{fill:#f2d455;}.cls-13{fill:#ffb27d;}.cls-15{fill:#3f3fba;}.cls-16{fill:#b5453c;}.cls-17{fill:#efdece;}.cls-18{fill:#fcecdb;}.cls-19{fill:#233862;}.cls-20{fill:#ed975d;}.cls-21{fill:#c69e20;}.cls-22{fill:#8fb7ef;}.cls-23{fill:#f9ddbf;}.cls-24{fill:#1c468a;}.cls-25{fill:#163560;}.cls-26{fill:#3e3eb7;}.cls-27{fill:#10385a;}.cls-28{fill:#2e3552;}.cls-29{fill:#f2c468;}.cls-30{fill:#699dee;}.cls-31{fill:#548ee2;}.cls-32{fill:#f4d2b8;}.cls-33{fill:#568cdb;}.cls-34{fill:#d39e7a;}.cls-35{fill:#efcbab;}.cls-36{fill:#f4a269;}.cls-37{fill:#4a75cb;}.cls-38{fill:#6bb7bf;}.cls-39{fill:#f99746;}.cls-40{fill:#8ad8db;}.cls-41{fill:#ed9f4a;}.cls-42{fill:#a2c5f9;}.cls-43{fill:#c7dcf9;}.cls-44{fill:#d2e4f9;}.cls-45{fill:#f1f7fd;}.cls-46{fill:#f8fbff;}</style></defs><g id="OBJECTS"><path class="cls-1" d="M224,313.36s-26.72-4.4-44.85,10.49-7.42,40.35-22.4,43.65c-21.59,4.75-71.24,11.56-66.06,58.24.53,4.72,151.55,0,151.55,0l-6.47-100.56Z"/><path class="cls-2" d="M442,347.17s31.91-5.83,54.06,12.31,12.06,33,23.92,36.92,28.65,11.49,24.88,30.68H437.61Z"/><path class="cls-2" d="M573.64,425.57H559.23c-.78-.65.53-2.14,1.9-2.24a8.71,8.71,0,0,1,2.2.26c.2-2.63,1.33-14.48,5.6-14,4.8.53,0,5.21-1.36,8A65.73,65.73,0,0,0,565,424l1.21.24c.63-2,3-8.53,6-8.14,3.53.44,2.11,3.08-.39,4.64-1.84,1.15-4.1,2.79-5.17,3.58a14.58,14.58,0,0,0,2.82.22A6.13,6.13,0,0,1,573.64,425.57Z"/><rect class="cls-3" x="224" y="62.89" width="254.08" height="349.94"/><rect class="cls-4" x="220.64" y="221.82" width="260.79" height="11.23"/><rect class="cls-5" x="372.95" y="111.71" width="69.41" height="92.26"/><rect class="cls-6" x="374.64" y="113.41" width="66.02" height="88.87"/><path class="cls-7" d="M390.34,112.51v25.31c0,.22,0,.44,0,.65,0,2-.27,3.49-.55,3.49h-.08c-.26,0-.48-1.3-.54-3.07,0-.14,0-.29,0-.44V112.39Q389.74,112.44,390.34,112.51Z"/><path class="cls-7" d="M389.43,138.76a8.17,8.17,0,0,0-7.94,8.39h15.87A8.17,8.17,0,0,0,389.43,138.76Z"/><path class="cls-8" d="M390.06,138.86a3.26,3.26,0,0,0-.7-.07c-2.85,0-5.17,3.74-5.17,8.36h1.4C385.59,142.92,387.53,139.41,390.06,138.86Z"/><path class="cls-2" d="M388.09,175s-3.91-4.56-.24-7.45c0,0,2.68-1.63,4.86-1.49,0,0-3.09,5.19-2.09,5.7s3-6,3-6,6.1-.59,8.06.35c0,0-5.21,4.27-4.12,4.52s6.73-3.93,6.73-3.93,5.68,1,5.37,4.43-2.25,4.53-3.11,4.43-5.89-2-6-1.3,2.92,3,5,3.11c0,0-4,4.41-6.66,3.14s-2.89-3.29-4.55-4.05-3.07-.76-2.38,0,3.68,1.52,4.63,3.2,1.8,2.8-1,2.39-7.23-2.43-7.42-4.73Z"/><path class="cls-2" d="M406.9,171.2s-15.41-.59-18.81,3.81a11.08,11.08,0,0,1-3.07,4.31l-.36,1s2.67-2.81,3.63-3C388.29,177.32,386.79,171.86,406.9,171.2Z"/><path class="cls-2" d="M385,179.32a9.69,9.69,0,0,0-3.54,6.82l.61.05s1.05-4.52,3-6.29S385,179.32,385,179.32Z"/><path class="cls-9" d="M378.06,175.56l-.85,1.82-.12.26h0a3.71,3.71,0,0,1-2.44,1.66V164.36c.84.36,1.4.63,1.4.63s-.35,6.82.77,6.68,0-6,0-6c2.08.63,4,3.06,4,3.06C383.27,172.64,378.06,175.56,378.06,175.56Z"/><path class="cls-2" d="M379.45,180.64v1l-.05-.12h0a2.75,2.75,0,0,0-.14-.3s0-.05,0-.08,0,0,0,0c-.1-.2-.21-.45-.34-.71h0a8.84,8.84,0,0,0-1.78-2.75h0a1.3,1.3,0,0,0,.12-.26c.2-.61.36-2.29-2.57-4.83v-.9a8.76,8.76,0,0,1,3.42,3.91,11.13,11.13,0,0,0,1.38,5.07Z"/><path class="cls-2" d="M379.45,180.64a9.63,9.63,0,0,1,1,7.58l-.58-.16s.56-4.58-.62-6.89S379.45,180.64,379.45,180.64Z"/><path class="cls-9" d="M384.3,168.12s-6.87-3.85-3.67-9.07c0,0,2.57-3.21,5.32-4,0,0-1.47,7.79,0,8s1-8.8,1-8.8,7.24-3.48,10.08-3.2c0,0-4.49,7.6-3,7.42s6.51-7.88,6.51-7.88,7.42-1.38,8.61,3-.73,6.6-1.83,6.88-8.16.18-8,1.1,4.95,2.38,7.6,1.55c0,0-2.93,7.24-6.78,6.88s-5-2.75-7.42-2.94-4.12.46-2.93,1.1,5.22.21,7.15,1.85,3.48,2.64-.1,3.38-10,.27-11.27-2.48Z"/><path class="cls-2" d="M405.74,154.93s-19.24,6.23-21.44,13.19a14.65,14.65,0,0,1-1.83,6.69v1.38s2-4.68,3.11-5.32C385.58,170.87,381.27,164.82,405.74,154.93Z"/><path class="cls-2" d="M382.47,174.81a12.71,12.71,0,0,0-1.28,10l.76-.21s-.74-6,.82-9.08S382.47,174.81,382.47,174.81Z"/><path class="cls-10" d="M425.83,188.17s10.17-41.44,10.91-44.93a2.63,2.63,0,0,1,2.35-2.26c-1.79-.18-3.09-.19-3.09-.19a8.35,8.35,0,0,0-7.78,6.26c-2.46,8.17-12,21.84-16.61,37.18C411.85,184.22,425.83,188.17,425.83,188.17Z"/><path class="cls-10" d="M374.64,202.28v-7.77c1.85-3.56,3.71-6.79,5.33-9.31.24-.39.49-.76.72-1.12h0l.23-.34h0c.3-.46.6-.89.88-1.28h0c.43-.6.82-1.12,1.17-1.54a5.4,5.4,0,0,1,1.83-1.42h0l.18-.08a7.36,7.36,0,0,1,.86-.35l.1,0h0a12.89,12.89,0,0,1,2.79-.55h0a31,31,0,0,1,7.18.31h0l.95.14c1.37.23,2.72.5,4,.79h0c.47.1.92.21,1.36.32l.1,0h0l.46.11,1.93.52c2.48.7,4.13,1.29,4.13,1.29v.33l0,1.25,0,.62L409,186v.33l0,1.57V188l.36,14.25Z"/><path class="cls-11" d="M422.62,187.5l-.94-.45h0l-.24-.12h0l-.73-.34-1.06-.49-1.73-.77-.56-.25h0l-.55-.23h0c-.72-.31-1.49-.63-2.3-.95h0c-.76-.31-1.55-.61-2.36-.91l-.13-.05c-2.25-.84-4.68-1.65-7.11-2.3-.76-.21-1.52-.4-2.27-.56h0l-.3-.07h0c-.48-.11-.95-.2-1.42-.28h0a31,31,0,0,0-3.68-.45l-.83,0a11.91,11.91,0,0,0-5.59,1,5.72,5.72,0,0,0-2.43,2.27,52.59,52.59,0,0,0-2.29,4.81,153.82,153.82,0,0,0-5.44,15h41l.1-1.16h0l.21-2.29,1-11.14v0Z"/><path class="cls-12" d="M440.66,140.94v61.34h-2.38c-1.69-.24-3.37-.5-5-.78h0c-2.79-.48-5.45-1-7.76-1.61-.68-.17-1.33-.35-1.95-.53-.37-.11-.73-.22-1.07-.34l-.56-.19c-2.58-.9-4.25-1.89-4.46-2.94s.27-3.25,1.16-6.36h0c.16-.56.33-1.15.52-1.77.08-.28.17-.57.26-.86,0-.12.07-.23.11-.34l0-.14c0-.11.07-.21.1-.31a.64.64,0,0,1,0-.07h0c.21-.66.43-1.33.66-2,.33-1,.67-2,1-3.07.47-1.38,1-2.8,1.49-4.26l.45-1.27c.55-1.51,1.11-3,1.68-4.59,1.47-4,3-7.92,4.4-11.55.42-1.1.84-2.16,1.24-3.18h0l.81-2.07c.77-2,1.32-3.84,1.83-5.53h0c.76-2.54,1.45-4.65,2.69-6a4.68,4.68,0,0,1,2.87-1.47l.22,0h0c.24,0,.49,0,.75,0Z"/><path class="cls-12" d="M433.27,201.5h0l-4.13-13.61-.07-.22-1.3-.13-1.74-.15-4-.32h-.35l-.89-.07h0l-.41,0-1-.06c-2.33-.16-4.94-.32-7.67-.44l-2-.09-.72,0c-1.63-.06-3.29-.1-4.93-.13h0c-2.23,0-4.45,0-6.57,0h0l-.5,0c-1.06,0-2.09.06-3.08.12-1.88.11-3.64.26-5.2.49-.95.13-1.84.29-2.63.48a7.82,7.82,0,0,0-3.82,1.73c-1.49,1.61-2.58,6.74-3.36,13.23H433.5Z"/><path class="cls-13" d="M418,161.1s-2.34.83-4.19,4.57-2.61,13.82-3.52,13.92-7.85-1.26-7.85-1.26l.16,1.73s7.22,4.81,8.72,3.94,5.67-12.5,5.94-14.26S418,161.1,418,161.1Z"/><path class="cls-14" d="M434.12,159.8s-9.39-2-16.12,1.3c0,0-4.32,9.29-4.19,10.86s1.64,8.15.28,10.63,12.48,6.88,15,5.35S434.52,161.5,434.12,159.8Z"/><path class="cls-15" d="M400.44,197.36c-.64,1.47-1.48,3.14-2.42,4.92H385.26c1.46-7.63,2.77-12.95,3.42-15.44.28-1.07.44-1.63.44-1.63a3.83,3.83,0,0,1,2.18-1.94h0c1.72-.49,3.73.66,5.52,2.34l.63.61h0a22.67,22.67,0,0,1,1.87,2.22,12.34,12.34,0,0,1,2.3,4.29C401.78,193.76,401.3,195.38,400.44,197.36Z"/><path class="cls-15" d="M391.22,183.31s2.87-1.64,9.39-.23a41.11,41.11,0,0,1,11.86,4.81l-16.63.69Z"/><path class="cls-13" d="M431.52,159.77s4.16-.76,4.74,2.63.07,23.85-3.12,24.88-16.27-4.72-16.27-4.72l.39-2.19s12.52,1.71,13,1.52S431.52,159.77,431.52,159.77Z"/><path class="cls-16" d="M399.33,175.19l-.59-5.45,7.72,10.17s-3.23,1.61-3.42,1.3Z"/><polygon class="cls-16" points="410.88 175.19 418.01 186.08 406.04 186.08 399.33 175.19 410.88 175.19"/><polygon class="cls-14" points="399.33 175.19 398.77 169.79 402.81 174.84 399.33 175.19"/><polygon class="cls-17" points="417.65 185.52 418.19 185.13 411.11 174.6 410.88 175.19 417.65 185.52"/><polygon class="cls-18" points="411.11 174.6 399.83 174.92 399.33 175.19 410.88 175.19 411.11 174.6"/><path class="cls-4" d="M414.89,202.28H402.13q-.93-2.64-1.69-4.92c-1.29-3.84-2.23-6.86-2.82-8.86-.32-1.06-.54-1.83-.66-2.27s-.13-.45-.13-.45v-.18a3.46,3.46,0,0,1,1.3-2.94l.12-.09h0c1.3-.86,3.32-.82,5.41-.35h0a21.84,21.84,0,0,1,5.26,2,8.86,8.86,0,0,1,2.5,1.77l.09.11a4,4,0,0,1,.22.37,8.57,8.57,0,0,1,.56,1.32l0,.08s0,0,0,0a60.81,60.81,0,0,1,1.92,9.46h0C414.48,198.93,414.69,200.6,414.89,202.28Z"/><path class="cls-4" d="M398.25,182.57s4.94-4.43,25.1,5.12l-16.55.25Z"/><path class="cls-13" d="M417.26,180.37a11,11,0,0,0-2.51-1.32c-.79-.11-1.64-1.11-1.56-.54s1,1.3,1.21,1.54-1.38.2-2-.12c-.3-.15-1.93-.57-1.91,0a3.13,3.13,0,0,0,2.24,2.39c.74.17,4.3.27,4.3.27Z"/><path class="cls-19" d="M425.63,150.27s3.5,1.92.8,5.74c0,0,3,.44,3.84-.42a2.72,2.72,0,0,1-.27.57s3-.31,4.05-1.4-1.79-16.07-9.74-13.25c0,0-7,.45-5.25,8.39s-.86,8.3-.86,8.3a3.73,3.73,0,0,0,1.13.21s.49-.27.55-.57a2,2,0,0,1-.15.63s2.87-.13,4.13-1.39S426.27,151.87,425.63,150.27Z"/><path class="cls-19" d="M426.87,154.26a17.7,17.7,0,0,0,2.45-5c.39-1.68,2.5-8.58-3.86-8,0,0-4.49.66-6.27,1.73-1.42.86-3.5,2.75-1.58,8.35l.48,1.88Z"/><path class="cls-13" d="M422.77,162.32a5.07,5.07,0,0,0,4.21,0c1.56-.77,2.28-2.44,2-3.13a12.52,12.52,0,0,1-1.75-5l-.3.13-5.11,2.09s.45,1.65.76,3.22C422.88,160.85,422.5,162.12,422.77,162.32Z"/><path class="cls-20" d="M421.86,156.31s.45,1.65.76,3.22c3-.66,4-3.68,4.35-5.31Z"/><path class="cls-13" d="M421.16,158s7.06-1.25,6.21-5.64-.51-7.5-5.06-6.88-5.09,2.46-5.16,4S419.3,158.21,421.16,158Z"/><path class="cls-19" d="M419.26,144.43s3.47,5.86,6.89,6.25,4.22-1.1,4.22-1.1a9.47,9.47,0,0,1-3.83-5.11S420.5,141.47,419.26,144.43Z"/><path class="cls-19" d="M419.85,144.82a7,7,0,0,0-1.64,2.81c-.22,1.31,0,3.9-.8,3.92,0,0-2.17-3.69-.65-6.15C418.36,142.79,419.85,144.82,419.85,144.82Z"/><path class="cls-19" d="M419.58,145.06s2.37,5.81,6.81,7.15c0,0-4.68-3.11-5.59-7S419.58,145.06,419.58,145.06Z"/><path class="cls-19" d="M434.05,154.76c-1.09,1.09-4.05,1.4-4.05,1.4a2.5,2.5,0,0,0,.26-.57c-1.55,1.19-5.25.19-5.25.19,3-.57,2.15-4.89,1.14-5.1a92.35,92.35,0,0,0-2-9.14l.21,0C432.26,138.69,435.14,153.67,434.05,154.76Z"/><path class="cls-14" d="M430.16,159.41s4.59.07,5.79,1.06,1.77,15.16,1.77,15.16a9.8,9.8,0,0,0-4.13-.14,13.65,13.65,0,0,1-4.52,0Z"/><path class="cls-14" d="M422.41,159.67s-5.79,1.16-7.11,2.69-4,9.26-4,9.26a2.68,2.68,0,0,1,1.56.87c.53.72,2.25.38,2.25.38Z"/><path class="cls-10" d="M411.86,202.28c.79-1.72,1.6-3.37,2.39-4.93h0c1.58-3.11,3.11-5.81,4.37-7.82h0c.42-.68.82-1.27,1.17-1.78.16-.23.32-.44.46-.63l.13-.16.07-.08.15-.17.11-.11.08-.08a6.64,6.64,0,0,1,2.43-1.42,13.94,13.94,0,0,1,3.52-.65,28,28,0,0,1,3.87.07h0c1.34.11,2.69.3,4,.53l1.32.26h0c1.77.36,3.4.77,4.71,1.14v15.84Z"/><path class="cls-21" d="M421.3,202.28c.13-.38.27-.77.41-1.16h0c.26-.72.51-1.42.77-2.1.72-1.92,1.43-3.7,2.09-5.25a56.77,56.77,0,0,1,2.46-5.22c.06-.1.12-.2.19-.3a5.31,5.31,0,0,1,.54-.71,5.7,5.7,0,0,1,.82-.73,6.47,6.47,0,0,1,1.58-.85,12.35,12.35,0,0,1,4.38-.71c.45,0,.91,0,1.39.05h0c.79,0,1.59.13,2.42.25l.41.07.11,0c.58.09,1.18.2,1.77.32v16.32Z"/><path class="cls-22" d="M445.58,202.25h-1.49V110H371.3v92.26h-1.49a6.72,6.72,0,0,0-6.72,6.73v.23H452.3V209A6.72,6.72,0,0,0,445.58,202.25Zm-70.9-88.87h66v16.31h-66Zm0,20.12h66v68.75h-66Z"/><rect class="cls-14" x="375.88" y="114.84" width="63.83" height="3.21"/><rect class="cls-14" x="375.88" y="119.88" width="63.83" height="3.21"/><rect class="cls-14" x="375.88" y="124.92" width="63.83" height="3.21"/><rect class="cls-14" x="375.88" y="129.64" width="63.83" height="3.21"/><rect class="cls-14" x="375.88" y="134.95" width="63.83" height="3.21"/><rect class="cls-14" x="378.84" y="113.33" width="0.62" height="27.44"/><rect class="cls-14" x="436.5" y="113.33" width="0.62" height="27.44"/><rect class="cls-23" x="374.47" y="272.14" width="69.41" height="92.26"/><path class="cls-14" d="M410.52,273.8s.17,27.26-27.49,50.31c0,0,5.76,30.05,4.94,38.57H374.68V273.8Z"/><path class="cls-13" d="M412.94,320.25a6.54,6.54,0,0,0-4.56,3.16c-1.69,2.84-5,15.17-7.35,17.68s-10.81,7.54-10.81,7.54l2.14,1.39s12.82-3.9,14.71-6.16,4.55-14.4,4.55-14.4Z"/><path class="cls-19" d="M415.77,302.91s.17-4.07,6-4.32S431.83,303.27,432,306s-1,6.88,2.83,9.66,1.95,15.71-7.11,15.71-14.44-.53-14.48-5.2-.18-8.91,3.42-10.21S415.77,302.91,415.77,302.91Z"/><path class="cls-24" d="M425.65,354.88l0,.11,0,.1c0,.08-.06.18-.09.31l0,.09c0,.1-.07.22-.11.35s-.05.16-.07.24c-.21.67-.49,1.61-.82,2.74-.08.29-.17.59-.27.91,0,.16-.09.32-.13.48a.84.84,0,0,0-.05.17c0,.11-.07.22-.1.33s-.07.26-.11.4c-.09.3-.18.62-.27.94-.21.75-.44,1.53-.66,2.35H409.2c0-.86.08-1.67.13-2.43l0-.52c.06-.85.13-1.64.19-2.36l.06-.55c0-.36.07-.7.11-1a1.1,1.1,0,0,0,0-.18,1,1,0,0,0,0-.17c.05-.34.09-.65.13-.94,0-.09,0-.18,0-.27a2,2,0,0,1,0-.26l0-.24a1.55,1.55,0,0,1,0-.21s0-.07,0-.1,0-.2.05-.28l0-.16s0-.1,0-.14a1.89,1.89,0,0,1,.17-.49.39.39,0,0,1,.06-.11l.06-.11a1.63,1.63,0,0,1,.17-.2.3.3,0,0,1,.08-.08l.09-.09.08-.06.14-.1.09-.05.21-.12.12-.05.14-.06.14-.05.13-.05a3.89,3.89,0,0,1,.49-.12l.13,0,.19,0,.27,0,.17,0h.15l.25,0,.31,0c.48,0,1,0,1.51,0l.36,0,.61,0,.89.11h0l.09,0,.42.06c.42.06.84.13,1.25.21l.5.1.45.09,1.24.28.45.1.11,0,.21.05.32.08.49.13.2.05.29.08.75.21.31.08.24.07h0l.19.06.18.05.19.06.11,0,.12,0Z"/><path class="cls-25" d="M425.65,354.88l0,.11,0,.1c0,.08-.06.18-.09.31l0,.09c0,.1-.07.22-.11.35s-.05.16-.07.24c-.21.67-.49,1.61-.82,2.74-.08.29-.17.59-.27.91,0,.16-.09.32-.13.48a.84.84,0,0,0-.05.17c0,.11-.07.22-.1.33s-.07.26-.11.4c-.09.3-.18.62-.27.94-.21.75-.44,1.53-.66,2.35H409.2c0-.86.08-1.67.13-2.43l0-.52c.06-.85.13-1.64.19-2.36l.06-.55c0-.36.07-.7.11-1a1.1,1.1,0,0,0,0-.18,1,1,0,0,0,0-.17c.05-.34.09-.65.13-.94,0-.09,0-.18,0-.27a2,2,0,0,1,0-.26l0-.24a1.55,1.55,0,0,1,0-.21s0-.07,0-.1,0-.2.05-.28l0-.16s0-.1,0-.14a1.89,1.89,0,0,1,.17-.49.39.39,0,0,1,.06-.11l.06-.11a1.63,1.63,0,0,1,.17-.2.3.3,0,0,1,.08-.08l.09-.09.08-.06.14-.1.09-.05.21-.12.12-.05.14-.06.14-.05.13-.05a3.89,3.89,0,0,1,.49-.12l.13,0,.19,0,.27,0,.17,0h.15l.25,0,.31,0c.48,0,1,0,1.51,0l.36,0,.61,0,.89.11h0l.09,0,.42.06c.42.06.84.13,1.25.21l.5.1.45.09,1.24.28.45.1.11,0,.21.05.32.08.49.13.2.05.29.08.75.21.31.08.24.07h0l.19.06.18.05.19.06.11,0,.12,0Z"/><path class="cls-24" d="M432.41,364.4H418.89c-.34-1.9-.65-3.65-.94-5.18-.48-2.6-.86-4.55-1-5.42-.07-.34-.1-.52-.1-.52l.34-.4h0c1.41-1.58,6.7-7.17,9.23-4.6.42.42.86.86,1.3,1.35a17.42,17.42,0,0,1,4,6.69A20,20,0,0,1,432.41,364.4Z"/><path class="cls-13" d="M415.77,322.15l2.29,3.43,4.61-.22,2.12-5.5s-.65-.13-1-7l-5.75,1.76a11.05,11.05,0,0,1-.1,3.73A6.13,6.13,0,0,1,415.77,322.15Z"/><path class="cls-13" d="M415.13,319.73c.3,0,5.71-1.81,13.45,1.34,0,0-3.67,21-2.1,25a42.07,42.07,0,0,1,2.18,7.56l-17.11.22s.24-13.77-.55-18.64S415.13,319.73,415.13,319.73Z"/><path class="cls-10" d="M432,355.87a3.57,3.57,0,0,1-1.72,1.46,16.79,16.79,0,0,1-3.3,1.05,33,33,0,0,1-3.36.54c-.73.08-1.52.15-2.31.2H421c-5.16.26-10.93.13-11.68-2.32a4.68,4.68,0,0,1,0-1.32c.1-1.27.4-3.16.68-4.93s.54-3.27.62-4.09c.39-4.35-.44-10.59-.56-14.63-.09-3.36,2.91-11.6,2.91-11.6a9.35,9.35,0,0,1,2.8-.64s.32,4,2.4,4.38c3.59.59,6.48-2.69,7.33-4,0,0,4.12,1,5.33,2.42.87,1,.76,3.36.5,4.86a7.15,7.15,0,0,1-.26,1.08c-.26.67-1.22,5.63-1.66,7.6l0,.14c0,.13-.06.25-.09.34h0c0,.11-.05.19-.06.24l0,.1h0a16.62,16.62,0,0,0-.79,6.64,6.83,6.83,0,0,0,.2,1.06C429.14,347.39,431.53,353.2,432,355.87Z"/><path class="cls-20" d="M418,318.36c2.38-.19,5.85-5.49,5.85-5.49l-5.75,1.76A11.05,11.05,0,0,1,418,318.36Z"/><path class="cls-10" d="M415.74,319.6s-5.52.59-7.36,3.18a26.22,26.22,0,0,0-3,6.48s1.32,3.95,5.16,3.46S415.74,319.6,415.74,319.6Z"/><path class="cls-13" d="M417.12,316.18s7-.21,6.82-4.58.57-7.34-3.92-7.39-5.28,1.66-5.57,3.14S415.29,316.13,417.12,316.18Z"/><path class="cls-19" d="M417.66,303.66s.21,1.45,3,3.35,3.24,6.31,3.24,6.31,2.09-7.85-.41-9.62S417.66,303.66,417.66,303.66Z"/><path class="cls-19" d="M419.93,301.18s-3.6-.34-6.15,3.69c-1.1,1.74-.24,4.45.9,5.87,0,0,.37-3.7,2.33-4.95S419.93,301.18,419.93,301.18Z"/><path class="cls-14" d="M418.73,313.64s-.07.54-1.38.6c0,0-1.1.06-1.14-.52A3.57,3.57,0,0,1,418.73,313.64Z"/><path class="cls-2" d="M395.93,342.74s-1.85-2.16-.12-3.53a5,5,0,0,1,2.31-.71s-1.47,2.46-1,2.7,1.44-2.85,1.44-2.85,2.89-.28,3.82.16c0,0-2.47,2-1.95,2.14s3.18-1.86,3.18-1.86,2.69.46,2.55,2.1-1.07,2.14-1.48,2.1-2.79-.95-2.84-.62,1.38,1.42,2.39,1.47c0,0-1.9,2.09-3.16,1.49s-1.36-1.56-2.15-1.92-1.45-.35-1.13,0,1.75.72,2.19,1.52.86,1.33-.45,1.13-3.42-1.15-3.51-2.24Z"/><path class="cls-2" d="M404.84,340.93s-7.3-.28-8.91,1.81a5.36,5.36,0,0,1-1.46,2l-.17.46s1.27-1.33,1.72-1.41C396,343.83,395.31,341.24,404.84,340.93Z"/><path class="cls-2" d="M394.47,344.78A4.6,4.6,0,0,0,392.8,348l.28,0a7.39,7.39,0,0,1,1.41-3C395.39,344.22,394.47,344.78,394.47,344.78Z"/><path class="cls-9" d="M389.46,340s2.94-1.65,1.57-3.89a5.82,5.82,0,0,0-2.28-1.72s.63,3.33,0,3.41-.43-3.77-.43-3.77-3.1-1.49-4.32-1.37c0,0,1.92,3.26,1.29,3.18s-2.78-3.38-2.78-3.38-3.18-.59-3.69,1.3.31,2.83.78,2.94,3.5.08,3.42.47-2.12,1-3.26.67c0,0,1.25,3.1,2.9,2.95s2.16-1.18,3.18-1.26,1.77.2,1.26.47-2.24.09-3.06.79-1.49,1.14,0,1.45,4.28.12,4.83-1.06Z"/><path class="cls-2" d="M380.27,334.37s8.24,2.67,9.19,5.65a6.29,6.29,0,0,0,.78,2.87v.59a8.5,8.5,0,0,0-1.33-2.28S390.75,338.61,380.27,334.37Z"/><path class="cls-2" d="M390.24,342.89a5.45,5.45,0,0,1,.55,4.28l-.33-.09s.32-2.59-.35-3.89S390.24,342.89,390.24,342.89Z"/><path class="cls-9" d="M394.14,337.75s-3.88-2.18-2.07-5.13a7.67,7.67,0,0,1,3-2.27s-.83,4.4,0,4.5.57-5,.57-5,4.09-2,5.69-1.81c0,0-2.53,4.3-1.7,4.19s3.67-4.45,3.67-4.45,4.19-.77,4.86,1.71-.41,3.73-1,3.88-4.61.1-4.5.62,2.79,1.35,4.29.88c0,0-1.65,4.09-3.83,3.88s-2.84-1.55-4.19-1.65-2.33.26-1.65.62,2.94.12,4,1,2,1.49,0,1.91-5.64.15-6.37-1.4Z"/><path class="cls-2" d="M406.25,330.3s-10.87,3.51-12.11,7.45a8.32,8.32,0,0,1-1,3.78v.77s1.13-2.64,1.75-3C394.86,339.3,392.43,335.88,406.25,330.3Z"/><path class="cls-2" d="M393.11,341.53a7.16,7.16,0,0,0-.73,5.64l.44-.12s-.42-3.41.45-5.13S393.11,341.53,393.11,341.53Z"/><path class="cls-4" d="M401.61,346.28a7.6,7.6,0,1,1-15.2,0Z"/><path class="cls-26" d="M394,353.89a7.21,7.21,0,0,0,.93,0,7.61,7.61,0,0,1-7.61-7.61h1.89C389.22,350.16,390.26,353.42,394,353.89Z"/><path class="cls-25" d="M401.72,354.27H386.3a.94.94,0,0,1,.94-.93h13.54A.94.94,0,0,1,401.72,354.27Z"/><rect class="cls-25" x="386.16" y="346.28" width="15.63" height="0.23"/><path class="cls-13" d="M402.09,349.12c-.17-.41-1.82-.8-2.48-1.09,0,0-.42.3.14.8a8,8,0,0,0,.7.52l-.24-.06c-.59-.16-4.39,1.14-4.85,2s2.19,3,4.15,2.29c1-.34,4.32-.94,4.32-.94l-.55-2.67S402.26,349.52,402.09,349.12Z"/><path class="cls-13" d="M431.43,324.1s.78,5.42-4.88,13.47-5.32,8.55-8.57,10.69-14.15,4.36-14.15,4.36l-.55-2.67s10.58-6.8,11.58-8.14,7.81-16.45,7.81-16.45Z"/><path class="cls-10" d="M426,322.08s-4.52,3.54-5.72,5.27A25.33,25.33,0,0,0,418,333s4.73,3,12.87.82c0,0,2.17-10.08-.05-11.39a4.76,4.76,0,0,0-4.28-.3Z"/><path class="cls-14" d="M412.33,273.8s5.06,22.33,28.38,30.23c0,0-.23,34.4-2.86,43.46a97.86,97.86,0,0,0-3.29,15.19h6.15V273.8Z"/><path class="cls-22" d="M445.58,362.68h-1.49V270.42H371.3v92.26h-1.49a6.72,6.72,0,0,0-6.72,6.72v.23H452.3v-.23A6.72,6.72,0,0,0,445.58,362.68Zm-70.9-88.88h66v16.32h-66Zm0,20.13h66v68.75h-66Z"/><rect class="cls-27" x="220.64" y="391.17" width="260.79" height="35.69"/><path class="cls-9" d="M282.58,427.08a36.49,36.49,0,0,0-24.9-23.19c-20.08-5.83-18.78-2.92-36.92-13.28s-46.63-3.89-52.46,4.53-19.42,13-38.2,12.63-19.74,18-19.74,18Z"/><rect class="cls-28" x="27.2" y="425.57" width="591.86" height="1.84" rx="0.77"/><rect class="cls-5" x="262.45" y="272.14" width="69.41" height="92.26"/><rect class="cls-29" x="264.14" y="273.83" width="66.02" height="88.88"/><path class="cls-19" d="M291.05,352.09s-3.8,5.2-3.8,10.62h25.84s-1.39-8.43-7.27-10.62S291.05,352.09,291.05,352.09Z"/><path class="cls-13" d="M322.68,324.11s-4.07,10.34-4.52,10.7c-1.22,1-8.73-10.48-9.88-12.48s-8.29-.29-8.89-4a27.1,27.1,0,0,1-.57-3.2v-.29a19.86,19.86,0,0,1,.16-2.34l-.36,0-6,.46a7.14,7.14,0,0,1,.4,3.19c-.06.57-.09,1.63-.16,2.68a2.79,2.79,0,0,1-2,2.48c-2.57.75-5.74,1.88-6.29,3.3-1.08,2.78-3.5,15.3-4,19.55s-4.77,16.69-4.77,16.69H278s8.08-13.58,8.77-15.7c.21-.66,1-3.25,1.94-6.54.91,3.57,2.19,7.14,2.47,8.59.48,2.54-4.18,10.73-3.72,13s25.15,3.5,24.81,0-3.81-9.42-4.51-12.19c-.52-2.09.69-9.06,1.07-13.2,3.77,4.31,8.9,8.33,10.47,7.51,4-2.12,5.31-17.73,5.31-17.73Z"/><path class="cls-19" d="M294.58,309.27a4.38,4.38,0,0,0-.5,6.26s-3.15-.13-3.94-.95a2.3,2.3,0,0,0,.27.54s-2.91-.24-4-1.29,1.45-15.79,9.3-13.17c0,0,6.89.3,5.31,8.12s1,8.12,1,8.12a3.72,3.72,0,0,1-1.11.23s-.48-.25-.55-.54a1.68,1.68,0,0,0,.17.6s-2.82-.07-4.08-1.28S294,310.85,294.58,309.27Z"/><path class="cls-19" d="M291.74,312.49a17.19,17.19,0,0,1-1.52-5.27c-.1-1.69,1.47-7.72,7.52-6.1a8.5,8.5,0,0,1,3.32,1.72c1.23,1.07,2.92,3.25.13,8.33l-.78,1.74Z"/><path class="cls-20" d="M299.39,318.32c-4.32-.63-6.76-5.17-6.76-5.17,1.76-.2,4.22.7,6.19,1.68v.29A15.18,15.18,0,0,0,299.39,318.32Z"/><path class="cls-13" d="M299.44,316.6s-7.75-.8-7.18-5.62-.05-8.17,4.93-7.86,5.71,2.25,5.91,3.91S301.47,316.68,299.44,316.6Z"/><path class="cls-19" d="M300.72,303.42s-2.79,5.4-6.14,5.85-4.66-.59-4.66-.59a9.3,9.3,0,0,0,3.66-5.08S299.45,300.54,300.72,303.42Z"/><path class="cls-19" d="M300.14,303.82a6.77,6.77,0,0,1,1.67,2.72c.24,1.27.12,3.82.86,3.82,0,0,2.06-3.65.52-6S300.14,303.82,300.14,303.82Z"/><path class="cls-19" d="M300.42,304s-2.22,5.74-6.55,7.15c0,0,4.54-3.15,5.35-7S300.42,304,300.42,304Z"/><path class="cls-14" d="M297.85,313.78s.2.7.67.8a6.92,6.92,0,0,0,1.83.15,6.87,6.87,0,0,0,.48-.71A9.45,9.45,0,0,0,297.85,313.78Z"/><path class="cls-13" d="M322.59,324.7a23.74,23.74,0,0,1,.26-4.95c.39-1.26,1.24-3.3,1.43-3.21a9.81,9.81,0,0,1,.41,3.46c-.16.62.16,2.09.41,1.79s.63-2.25.95-2.13,0,1.3.18,1.6a2.53,2.53,0,0,1-.49,2.12c-.62,1-1.23,2.17-1.23,2.17Z"/><path class="cls-13" d="M276.34,360.86s-3.11-.75-4.14-.39-2.89,2.18-2.41,2.21,2.62-.55,2.92-.47,1.18.19,1.18.19-1.27.08-1.21.31a9,9,0,0,0,3.66,0,20.88,20.88,0,0,0,1.69-1.85Z"/><path class="cls-14" d="M287.57,322.47a14.05,14.05,0,0,0,8.89,3.08c5-.26,8.9-4.35,8.9-4.35a5.42,5.42,0,0,1,3.46,1.28c1.19,1.27,5.73,7,5.73,7s.39,4.27-4.7,7.25l-.52-.92s-.86,10.63-.32,11.63,4.77,11.46,4.08,13.07-23.85,5.55-25.6-.26,2.61-10.85,2.43-12.92-1.18-8.67-1.18-8.67-6.69-1-6.92-5C281.82,333.6,283,322.41,287.57,322.47Z"/><path class="cls-22" d="M335.08,362.68h-1.49V270.42H260.8v92.26h-1.49a6.72,6.72,0,0,0-6.72,6.72v.23H341.8v-.23A6.72,6.72,0,0,0,335.08,362.68Zm-70.9-88.88h66v16.32h-66Zm0,20.13h66v68.75h-66Z"/><rect class="cls-14" x="265.38" y="275.26" width="63.83" height="3.21"/><rect class="cls-14" x="265.38" y="280.3" width="63.83" height="3.21"/><rect class="cls-14" x="265.38" y="285.34" width="63.83" height="3.21"/><rect class="cls-14" x="265.38" y="290.07" width="63.83" height="3.21"/><rect class="cls-14" x="265.38" y="295.37" width="63.83" height="3.21"/><rect class="cls-14" x="268.34" y="273.75" width="0.62" height="27.44"/><rect class="cls-14" x="326" y="273.75" width="0.62" height="27.44"/><path class="cls-18" d="M303.06,356.79h9.37a1.38,1.38,0,0,1,1.38,1.38v.52a1.41,1.41,0,0,1-1.41,1.41h-9.34a0,0,0,0,1,0,0v-3.32a0,0,0,0,1,0,0Z"/><path class="cls-30" d="M321.83,358.15v.5a1.45,1.45,0,0,1-1.45,1.46H302.77a.21.21,0,0,1-.21-.21v-.08a.21.21,0,0,1,.21-.21H313.5a1.14,1.14,0,0,0,.15-.23,1.23,1.23,0,0,0,.16-.63v-.64a1.19,1.19,0,0,0,0-.33,1.47,1.47,0,0,0-.25-.5H302.77a.21.21,0,0,1-.21-.21V357a.21.21,0,0,1,.21-.21h17.7a1.36,1.36,0,0,1,1.31,1A1.5,1.5,0,0,1,321.83,358.15Z"/><path class="cls-31" d="M321.78,357.78h-8a1.47,1.47,0,0,0-.25-.5H302.77a.21.21,0,0,1-.21-.21V357a.21.21,0,0,1,.21-.21h17.7A1.36,1.36,0,0,1,321.78,357.78Z"/><polygon class="cls-32" points="303.06 358.45 304.36 358.5 303.06 358.54 303.06 358.45"/><polygon class="cls-32" points="303.06 358.97 306.16 359.02 303.06 359.06 303.06 358.97"/><path class="cls-16" d="M305.07,362.68h10V360.1H305a1.24,1.24,0,0,0-1.25,1.25h0A1.33,1.33,0,0,0,305.07,362.68Z"/><path class="cls-18" d="M313.2,360.1h11.59a1.1,1.1,0,0,1,1.1,1.1v.41a1.07,1.07,0,0,1-1.07,1.07H313.2a0,0,0,0,1,0,0V360.1A0,0,0,0,1,313.2,360.1Z" transform="translate(639.08 722.77) rotate(-180)"/><path class="cls-16" d="M312.44,362.68h13.84a.2.2,0,0,0,.19-.2h0a.2.2,0,0,0-.19-.19H312.44a.2.2,0,0,0-.2.19h0A.2.2,0,0,0,312.44,362.68Z"/><path class="cls-16" d="M312.44,360.48h13.84a.2.2,0,0,0,.19-.19h0a.19.19,0,0,0-.19-.19H312.44a.19.19,0,0,0-.2.19h0A.2.2,0,0,0,312.44,360.48Z"/><polygon class="cls-32" points="325.88 361.39 324.34 361.43 325.88 361.46 325.88 361.39"/><polygon class="cls-32" points="325.88 360.79 322.22 360.83 325.88 360.86 325.88 360.79"/><path class="cls-30" d="M322.26,360.83a.58.58,0,0,1,.21.29s0,.07,0,.1V362l.46-.27.46.27v-.74a.62.62,0,0,0-.11-.37.19.19,0,0,0-.13-.07Z"/><path class="cls-33" d="M322.26,360.83a.58.58,0,0,1,.21.29h.93s0-.26-.23-.3Z"/><rect class="cls-6" x="261.01" y="111.71" width="69.41" height="92.26"/><path class="cls-14" d="M294.37,113.38s-.17,27.26,27.49,50.31c0,0-5.76,30.05-4.94,38.56h13.29V113.38Z"/><path class="cls-34" d="M269.61,165.11s-5.78.82-7.28,2.13c-2.51,2.2-.67,35.75-.67,35.75s8.7.72,8.7,0S269.61,165.11,269.61,165.11Z"/><path class="cls-35" d="M292.3,203.05l-12.44.93-8.67.64-1.83.14-.12-.78-.1-.69,0-.16-.43-3h0l-.17-1.2L268,195.2l-2.73-18.87-.75-5.26s-.58-5,4-5.77l1.06-.19h0c1.56-.28,3.35-.6,5.11-.82a29.29,29.29,0,0,1,4.15-.29,11.88,11.88,0,0,1,1.53.12,5.79,5.79,0,0,1,1.61.44.53.53,0,0,1,.15.08,2.41,2.41,0,0,1,.49.31l.17.16a3.6,3.6,0,0,1,.55,1c.22.53.47,1.23.74,2.08.37,1.18.79,2.63,1.23,4.28,1.22,4.6,2.63,10.66,3.86,16.18,0,.17.08.33.11.5.16.71.32,1.41.47,2.1a.44.44,0,0,0,0,.1c0,.12.05.25.08.38.08.34.15.68.22,1,.15.66.28,1.3.42,1.92.9,4.19,1.56,7.37,1.73,8.2C292.28,203,292.3,203.05,292.3,203.05Z"/><path class="cls-36" d="M284.43,168.05s2,2.91,3.09,9c1,5.35,1.84,7.33,3.26,8.43s9.32,4.34,9.32,4.34l-.59,1.39s-11.58-1.58-12.88-3.52-6.27-13.37-5.88-16S284.43,168.05,284.43,168.05Z"/><path class="cls-10" d="M311,204H301.4c-.24-1-.59-1.56-1.26-1.6s-3.9.32-7.89.46c-6.32.22-14.38-.09-16.2-3.29a11,11,0,0,1-1-2.27h0c0-.11-.07-.21-.1-.32a11.64,11.64,0,0,1-.36-3.83,12.61,12.61,0,0,1,.25-1.8,10.55,10.55,0,0,1,.67-2.14l3.12,2.29h0l.35.25s2.69-.2,6.38-.36l2.58-.09,1.36,0h.45c1.11,0,2.25,0,3.39,0h1.15c4.4,0,8.59.33,10.71,1.14a4.28,4.28,0,0,1,.77.36l0,0C307.35,193.72,309.21,198.4,311,204Z"/><path class="cls-12" d="M302.19,204H279.86l-8.67.64a8.73,8.73,0,0,1-1.14-.64,5,5,0,0,1-.8-.7l-.13-.15a3.11,3.11,0,0,1-.35-.54,4.43,4.43,0,0,1-.53-2.43h0a4.57,4.57,0,0,1,.27-1.27,7.62,7.62,0,0,1,1.73-2.62,17.36,17.36,0,0,1,4.36-3.15h0c.25,0,2.85.14,6.29.43h0l1,.09h0c2.69.24,5.77.56,8.59,1,3.64.57,6.84,1.31,8.24,2.27C299.85,197.66,301,200.37,302.19,204Z"/><path class="cls-16" d="M284,157.46v0h0c0-.39,0-.77-.05-1.15a23.88,23.88,0,0,0-.43-3.22c-.12-.57-.25-1.09-.4-1.57,0-.08-.05-.15-.07-.22h0a4.37,4.37,0,0,0-1.3-2.21,5.25,5.25,0,0,0-2.76-.72,1.32,1.32,0,0,1,.61-.24,4.42,4.42,0,0,0-1.58.3c-6.51-3-8.21,6.74-8.22,9s-.18,4.92-3.65,6.75a6.87,6.87,0,0,0-2.76,2.45c-2.28,3.75,1,8.55,1,8.55l.88,1.15c1.33,1.74,3.67,4.84,3.67,4.84h0a5.77,5.77,0,0,1,1-2.28c.45-.77,1-1.66,1.73-2.61.32-.45.67-.91,1-1.37.48-.62,1-1.26,1.51-1.88l.61-.71a40.82,40.82,0,0,1,2.86-3q.33-.32.66-.6h0c.27-.24.54-.47.8-.68a16.12,16.12,0,0,1,1.48-1.06l.07,0h0l.2-.11a6.66,6.66,0,0,0,.55-.86,3.78,3.78,0,0,0,.17-.35q.26-.54.45-1.08a18.13,18.13,0,0,0,.63-2.22,17.81,17.81,0,0,1-.48,2.3c-.11.41-.23.75-.34,1.05a5.76,5.76,0,0,1-.26.55l-.1.21.15-.13a4,4,0,0,0,.52-.57,5.8,5.8,0,0,0,.52-.8A15.76,15.76,0,0,0,284,157.46Z"/><path class="cls-13" d="M280.72,165.51l-.38-.15c0-.3,0-.61,0-.93.1-1.47.32-3,.32-3l-4.87-1.31-.29-.08a15.15,15.15,0,0,1-1,4.62c-.5,0-.82,0-.82,0A1.88,1.88,0,0,0,274,166a1,1,0,0,0-.08.24c-.3,1.36,3.13,3.29,4.72,3.36a1.67,1.67,0,0,0,1.69-.8A1.69,1.69,0,0,0,280.72,165.51Z"/><path class="cls-36" d="M280.7,161.42s-.22,1.54-.32,3c-2.75-.26-4.05-2.88-4.55-4.32Z"/><path class="cls-16" d="M275.35,159.54a14.74,14.74,0,0,1-1.51-4.36c-.15-1.42.9-6.55,6.06-5.45a7.07,7.07,0,0,1,2.85,1.3c1.08.84,2.6,2.59.48,7l-.58,1.49Z"/><path class="cls-13" d="M281.53,162.86s-6.54-.32-6.28-4.4-.39-6.85,3.79-6.81,4.9,1.64,5.14,3S283.24,162.85,281.53,162.86Z"/><path class="cls-16" d="M282,151.74s-2.11,4.66-4.9,5.18-3.94-.29-3.94-.29a7.77,7.77,0,0,0,2.85-4.42S280.83,149.38,282,151.74Z"/><path class="cls-16" d="M281.56,152.1a5.85,5.85,0,0,1,1.52,2.22c.26,1.06.26,3.2.89,3.17,0,0,1.56-3.16.17-5.1S281.56,152.1,281.56,152.1Z"/><path class="cls-4" d="M288.08,192.06c-.53.64-2.19.83-3.95,1.12a11.89,11.89,0,0,0-3.89,1.13c-2.36,1.38-10.07,6.06-12.33,5.85-.87-.08-.71-1.75-.18-4,.84-3.5,2.58-8.37,2.58-10.49a62.64,62.64,0,0,1,.9-7c0-.25.09-.5.13-.76,1-6.07,2.42-13.23,2.42-13.23s1.57,3.42,4.62,3.42,2.34-2.61,2.34-2.61,2.79.33,3.45,1a27,27,0,0,1,2.66,4.61s.07,1.06-2.57,1.57a35.15,35.15,0,0,1,.72,4.81c.06,1.42-1,5.87-1.27,8.64a5.39,5.39,0,0,0,0,2.1,4.16,4.16,0,0,0,1.62,1.33C286.86,190.48,288.71,191.31,288.08,192.06Z"/><path class="cls-37" d="M285.37,189.61c1.69,2.88-4.59,3.75-5.63,4.36-2.35,1.38-9.57,6.4-11.83,6.19-.87-.08-.71-1.75-.18-4,.84-3.5,2.58-8.37,2.58-10.49a62.64,62.64,0,0,1,.9-7l2.72-2.61s2.91,7.53,5.69,8.77a24.25,24.25,0,0,0,4.09,1.33,5.39,5.39,0,0,0,0,2.1A4.16,4.16,0,0,0,285.37,189.61Z"/><rect class="cls-4" x="285.95" y="191.71" width="8.55" height="1.01"/><path class="cls-4" d="M292.69,192.58c.08-.33,7.86-12.55,7.86-12.55h17.31l-8.68,12.22Z"/><path class="cls-4" d="M293.42,192.72c.08-.34,7.89-12.69,7.89-12.69h16.55l-8.26,12.69Z"/><path class="cls-4" d="M307.12,186.8a1.38,1.38,0,0,1-1.2.89.61.61,0,0,1-.59-.89,1.38,1.38,0,0,1,1.2-.9A.62.62,0,0,1,307.12,186.8Z"/><path class="cls-13" d="M290.65,188.54a21.29,21.29,0,0,0-3.91.5c-2.5-.49-10.73-2.13-11.13-2.65s-1.51-19.13-2.69-19.44c0,0-2.32-1.41-4.57,1.27S270,190,273.28,191c3.7,1.09,14.38-.18,14.38-.18h0c.88.3,2.42.47,3.23.74a2,2,0,0,0,2.27-.36C293.4,190.81,291.07,188.72,290.65,188.54Z"/><path class="cls-4" d="M273.76,164.7s-4.78.43-6.16,2-1.79,5.82-1.79,5.82,4.2,3.4,9.27,2.08Z"/><path class="cls-14" d="M292.55,113.38s-5.05,22.32-28.37,30.22c0,0,.23,34.41,2.86,43.46a98.13,98.13,0,0,1,3.29,15.19h-6.15V113.38Z"/><path class="cls-22" d="M252.59,209v.23H341.8V209a6.72,6.72,0,0,0-6.72-6.73h-1.49V110H260.8v92.26h-1.49A6.72,6.72,0,0,0,252.59,209Zm77.62-79.29h-66V113.38h66Zm0,72.56h-66V133.5h66Z"/><path class="cls-38" d="M319,195.55a3.4,3.4,0,0,0,4-1.44S320.29,193.65,319,195.55Z"/><path class="cls-38" d="M318.82,194.57a1.16,1.16,0,0,0-1.15-.87A1.46,1.46,0,0,0,318.82,194.57Z"/><path class="cls-38" d="M319.31,189.67a1.53,1.53,0,0,0,1.56-1.13A2,2,0,0,0,319.31,189.67Z"/><path class="cls-38" d="M322,173.2a2.64,2.64,0,0,1-2.33-2.36C322.38,171.69,322,173.2,322,173.2Z"/><path class="cls-38" d="M322.17,172.78a2.06,2.06,0,0,0,2.44-.88A2.62,2.62,0,0,0,322.17,172.78Z"/><path class="cls-38" d="M319,201.05l-.3.34a.07.07,0,0,1-.13,0,123.54,123.54,0,0,1,2.27-23.29,75.32,75.32,0,0,1,2.28-8.82h0s-1,3.35-2.16,8.86a92.29,92.29,0,0,0-1.91,22.83A.19.19,0,0,1,319,201.05Z"/><path class="cls-39" d="M323.13,167.91c-.37.3-1.77,1.55-.41,2.52,0,0,1,.33,1.39-.48a5.17,5.17,0,0,0,.35-1.58.14.14,0,0,0-.13-.15.88.88,0,0,1-.29-.06c-.13,0-.2-.25-.37-.29a1,1,0,0,0-.35,0A.41.41,0,0,0,323.13,167.91Z"/><path class="cls-38" d="M322.35,170.08a.82.82,0,0,1,.26.86v.2a1,1,0,0,1,.62-.65A1.12,1.12,0,0,1,322.35,170.08Z"/><path class="cls-40" d="M322,173.2a2.64,2.64,0,0,1-2.33-2.36A5.75,5.75,0,0,1,322,173.2Z"/><path class="cls-38" d="M319.81,171.92a2.07,2.07,0,0,1-2.43-.93A2.63,2.63,0,0,1,319.81,171.92Z"/><path class="cls-38" d="M322.38,200.25l.29.35a.07.07,0,0,0,.13,0A123.56,123.56,0,0,0,321,177.22a75.23,75.23,0,0,0-2.09-8.87h0s1,3.37,2,8.9a92.45,92.45,0,0,1,1.45,22.87A.19.19,0,0,0,322.38,200.25Z"/><path class="cls-39" d="M318.94,167c.36.3,1.74,1.58.36,2.52,0,0-1.05.31-1.38-.5a5,5,0,0,1-.32-1.59.14.14,0,0,1,.13-.15.93.93,0,0,0,.3-.06c.13,0,.19-.24.37-.28a1.31,1.31,0,0,1,.35,0A.34.34,0,0,1,318.94,167Z"/><path class="cls-38" d="M319.68,169.22a.82.82,0,0,0-.28.85v.2a.92.92,0,0,0-.61-.65A1.11,1.11,0,0,0,319.68,169.22Z"/><path class="cls-38" d="M320.42,170.23a2.07,2.07,0,0,0,2.19-1.39A2.61,2.61,0,0,0,320.42,170.23Z"/><path class="cls-38" d="M323.52,198.51l-.22.4a.07.07,0,0,1-.13,0,122.51,122.51,0,0,1-2.86-23.23,75.83,75.83,0,0,1,.29-9.11h0s-.28,3.5-.17,9.12a91.87,91.87,0,0,0,3.11,22.7A.22.22,0,0,1,323.52,198.51Z"/><path class="cls-39" d="M320.3,165.27c-.3.37-1.39,1.9.15,2.54,0,0,1.08.1,1.25-.76a5,5,0,0,0,0-1.62.13.13,0,0,0-.15-.12,1,1,0,0,1-.3,0c-.14,0-.25-.19-.42-.2a1,1,0,0,0-.35,0A.35.35,0,0,0,320.3,165.27Z"/><path class="cls-38" d="M320,167.55a.84.84,0,0,1,.44.79l0,.19a.93.93,0,0,1,.46-.76A1.08,1.08,0,0,1,320,167.55Z"/><path class="cls-38" d="M321.67,168.53a1.74,1.74,0,0,1,1-1.58S322.94,168,321.67,168.53Z"/><path class="cls-41" d="M319.23,166.59a1.22,1.22,0,0,0-.82-1.18A1,1,0,0,0,319.23,166.59Z"/><path class="cls-41" d="M322,172.13a1.35,1.35,0,0,0-.4-1.64A1.58,1.58,0,0,0,322,172.13Z"/><path class="cls-38" d="M322.61,172.06a.51.51,0,0,1,.43-.53S323.12,171.92,322.61,172.06Z"/><path class="cls-38" d="M318.26,170.49a1.45,1.45,0,0,0-1.55-.63S316.89,170.68,318.26,170.49Z"/><path class="cls-10" d="M324.78,202.18h-7.56a.82.82,0,0,1-.82-1L319.91,177a.47.47,0,0,1,.46-.4h1.12a.5.5,0,0,1,.49.42l3.6,24.25A.81.81,0,0,1,324.78,202.18Z"/><path class="cls-12" d="M318.89,201.45l1.87-24.86a.46.46,0,0,0-.39.39l-3.52,24.25a.83.83,0,0,0,.82,1h1.52A.88.88,0,0,1,318.89,201.45Z"/><path class="cls-42" d="M525.55,257.34H524v-.12l.48-4.24a.27.27,0,0,1,.27-.24h0a.37.37,0,0,1,.23.1.42.42,0,0,1,.14.28Z"/><path class="cls-7" d="M524.12,256.38h-.06l.4-3.4a.27.27,0,0,1,.27-.24h0l0,0a.39.39,0,0,1,.11.28l0,2.44A.85.85,0,0,1,524.12,256.38Z"/><rect class="cls-42" x="523.5" y="276.19" width="3.06" height="135.18"/><rect class="cls-7" x="523.5" y="276.19" width="1.41" height="135.18"/><rect class="cls-42" x="520.16" y="389.8" width="9.75" height="35.77"/><rect class="cls-7" x="520.16" y="389.8" width="5.81" height="35.77"/><path class="cls-42" d="M530.36,259.38c0,1.67-2.51,3-5.6,3-.24,0-.47,0-.7,0-2.76-.18-4.9-1.46-4.9-3s2.14-2.81,4.9-3l.7,0C527.85,256.36,530.36,257.71,530.36,259.38Z"/><path class="cls-7" d="M527.46,259.38c0,1.35-1.4,2.5-3.4,3-2.76-.18-4.9-1.46-4.9-3s2.14-2.81,4.9-3C526.06,256.88,527.46,258,527.46,259.38Z"/><polygon class="cls-7" points="529.9 278.85 520.15 278.85 516.71 262.3 532.81 262.3 529.9 278.85"/><rect class="cls-42" x="515.84" y="261.05" width="17.84" height="1.59"/><rect class="cls-7" x="515.84" y="261.05" width="11.21" height="1.59"/><path class="cls-42" d="M521.76,389.8H528l-.92-2.77a.6.6,0,0,0-.56-.41h-2.92a.8.8,0,0,0-.73.48Z"/><polygon class="cls-43" points="517.86 263.11 531.61 263.11 528.93 277.98 521.03 277.98 517.86 263.11"/><path class="cls-43" d="M519.53,259.56s1-2.29,3.11-2.22c0,0-1.31,1.17-1.19,2.22S519.53,259.56,519.53,259.56Z"/><polygon class="cls-42" points="532.54 261.05 516.98 261.05 518.25 259.24 531.33 259.24 532.54 261.05"/><polygon class="cls-7" points="528.71 261.05 516.98 261.05 518.25 259.24 527.5 259.24 528.71 261.05"/><polygon class="cls-44" points="518.77 263.62 521.92 263.62 522.84 277.52 521.92 277.52 518.77 263.62"/><path class="cls-45" d="M198,156.88l-75.2,24.81a150.52,150.52,0,0,1,12.66-13Z"/><path class="cls-46" d="M193.15,174.6a4.9,4.9,0,1,1,4.89,4.9A4.9,4.9,0,0,1,193.15,174.6Z"/><rect class="cls-27" x="209.11" y="53.17" width="283.86" height="19.43" transform="translate(-2.04 12.68) rotate(-2.06)"/><rect class="cls-27" x="255.47" y="88.43" width="83.64" height="17.89"/><rect class="cls-27" x="365.83" y="88.43" width="83.64" height="17.89"/><rect class="cls-27" x="255.47" y="245.65" width="83.64" height="17.89"/><rect class="cls-27" x="365.83" y="245.65" width="83.64" height="17.89"/></g></svg>