<svg id="Layer_1" data-name="Layer 1" xmlns="http://www.w3.org/2000/svg" viewBox="0 0 100 100"><defs><style>.cls-1{fill:#2e7782;}</style></defs><path class="cls-1" d="M72.16,27.77H64V21.69a2.13,2.13,0,1,0-4.25,0v6.08H39.9V21.69a2.13,2.13,0,1,0-4.25,0v6.08H27.44a8,8,0,0,0-8,8V73.45a8,8,0,0,0,8,8H72.16a8,8,0,0,0,8-8V35.76A8,8,0,0,0,72.16,27.77ZM27.44,32h8.21V35a2.13,2.13,0,0,0,4.25,0V32H59.62V35a2.13,2.13,0,0,0,4.26,0V32h8.21a3.74,3.74,0,0,1,3.73,3.73v7.12H23.7V35.76A3.75,3.75,0,0,1,27.44,32ZM72.16,77.18H27.44a3.75,3.75,0,0,1-3.74-3.73V47.2H75.9V73.45A3.75,3.75,0,0,1,72.16,77.18Z"/><path class="cls-1" d="M35.8,50.28a7.41,7.41,0,1,0,0,14.81,7.32,7.32,0,0,0,7.4-7.33A7.45,7.45,0,0,0,35.8,50.28Zm0,10.63a3.19,3.19,0,0,1-3.15-3.23,3.15,3.15,0,1,1,6.3,0A3.19,3.19,0,0,1,35.8,60.91Z"/><path class="cls-1" d="M39,68.31H32.57a2.13,2.13,0,0,0,0,4.26H39a2.13,2.13,0,0,0,0-4.26Z"/><path class="cls-1" d="M54.05,68.31H47.67a2.13,2.13,0,0,0,0,4.26h6.38a2.13,2.13,0,1,0,0-4.26Z"/><path class="cls-1" d="M54.05,55.63H47.67a2.13,2.13,0,0,0,0,4.25h6.38a2.13,2.13,0,1,0,0-4.25Z"/><path class="cls-1" d="M69.15,68.31H62.78a2.13,2.13,0,0,0,0,4.26h6.37a2.13,2.13,0,0,0,0-4.26Z"/><path class="cls-1" d="M69.15,55.63H62.78a2.13,2.13,0,1,0,0,4.25h6.37a2.13,2.13,0,1,0,0-4.25Z"/></svg>