<svg xmlns="http://www.w3.org/2000/svg" xmlns:xlink="http://www.w3.org/1999/xlink" viewBox="0 0 423.4 306.29"><defs><style>.cls-1{isolation:isolate;}.cls-2{fill:#cfe5ff;}.cls-3{fill:#eaf4ff;}.cls-18,.cls-4{fill:none;stroke-miterlimit:10;}.cls-4{stroke:#d8171c;stroke-width:2px;}.cls-5{fill:#e5ebf4;}.cls-21,.cls-24,.cls-5{mix-blend-mode:multiply;}.cls-6{fill:#d85c1c;}.cls-7{fill:#b14800;}.cls-8{fill:#e7d1ad;}.cls-9{fill:#e0bd82;}.cls-10{fill:#e7cb9e;}.cls-11{fill:#e0b695;}.cls-12{fill:#e0ab82;}.cls-13{fill:#393939;}.cls-14{fill:#2638a3;}.cls-15{fill:#12259a;}.cls-16{fill:#424242;}.cls-17{fill:#e5f1ff;}.cls-18{stroke:#000;stroke-linecap:round;}.cls-19{fill:#d49500;}.cls-20{fill:url(#Degradado_sin_nombre_6);}.cls-22{fill:#e1e3e6;}.cls-23{fill:#ffb700;}.cls-24{fill:#e7e7e6;}.cls-25{fill:#ffc400;}.cls-26{fill:#fefefe;}.cls-27{fill:#606060;}.cls-28{fill:#3f69d0;}.cls-29{fill:#f7fbfc;}</style><linearGradient id="Degradado_sin_nombre_6" x1="198.64" y1="203.1" x2="198.64" y2="54.98" gradientUnits="userSpaceOnUse"><stop offset="0" stop-color="#cac7c2"/><stop offset="0.22" stop-color="#dedcd9"/><stop offset="0.47" stop-color="#eeedec"/><stop offset="0.73" stop-color="#f8f8f7"/><stop offset="1" stop-color="#fbfbfb"/></linearGradient></defs><g class="cls-1"><g id="OBJECTS"><path class="cls-2" d="M345.33,234.17a4.67,4.67,0,1,1-4.66-4.67A4.66,4.66,0,0,1,345.33,234.17Z" transform="translate(-8.6 -12.5)"/><path class="cls-3" d="M391.5,66.18C354.67,34.11,300.72,12.5,248,12.5c-104.56,0-153.86,45-128,84,55,83-75.33,33-104,82-26.9,46,23.48,109.29,87.5,133.58,0,0,75.66,15.09,98.58,0s24.4-14.61,34.92-26.58c62.13-70.71,117.11-60.78,154.5-68.4,0,0,40.5-26.1,40.5-80.1S391.5,66.18,391.5,66.18Z" transform="translate(-8.6 -12.5)"/><circle class="cls-2" cx="54.9" cy="116.5" r="11.5"/><circle class="cls-2" cx="19.4" cy="279" r="6"/><path class="cls-4" d="M82.83,174.1c-7.33,4.89-11.49,29.08,2.69,29.57,9.77.34,13.62-8.47,10-11.2-9.22-6.88-20,17.31-9.22,22.2,5.07,2.31,10.22-1.37,15.77-5.85,8.49-6.85,17.92-15.57,29.45-7.59" transform="translate(-8.6 -12.5)"/><path class="cls-5" d="M260.55,249.42c0,1.92-6.39,3.48-14.27,3.48S232,251.34,232,249.42s6.39-3.47,14.28-3.47S260.55,247.5,260.55,249.42Z" transform="translate(-8.6 -12.5)"/><path class="cls-5" d="M179.16,263.12c0,1.92-6.39,3.47-14.27,3.47s-14.28-1.55-14.28-3.47,6.39-3.48,14.28-3.48S179.16,261.2,179.16,263.12Z" transform="translate(-8.6 -12.5)"/><path class="cls-5" d="M288.87,241.9H126.5a57.57,57.57,0,0,1-16.74-2.49l-25.24-7.7H333.34l-29.1,8.09A57.1,57.1,0,0,1,288.87,241.9Z" transform="translate(-8.6 -12.5)"/><path class="cls-6" d="M321.15,94.88a57.52,57.52,0,0,0-14.53,1,12.82,12.82,0,0,0-8.78,6c-3.41,5.63-8.68,14.56-9.79,17.68,0,0-9.37-1.46-14.66-4.67l-2.33,4.67s5.38,3.74,21.24,8.93a77.76,77.76,0,0,0,7.23-14s-.53,3.83,1.27,10.62c1.43,5.37-1.92,26.32-1.92,26.32l34.5-1.24-2.83-20.83,4.18-5.38a6.94,6.94,0,0,0,1.36-5.37,57.2,57.2,0,0,0-5.86-17.76A11.46,11.46,0,0,0,321.15,94.88Z" transform="translate(-8.6 -12.5)"/><path class="cls-7" d="M327.25,120.37,326,111.56s-1.7,11.58-2.45,13Z" transform="translate(-8.6 -12.5)"/><path class="cls-8" d="M314.28,131.69c-1.76.61-6.28,2.05-5.86,3,.24.53,3.43-.73,3.78-.3s-.87,2-2.91,3.1c-1.58.83-2.68.66-2.75,1.42-.08,1,4.6.86,5.8.71a6.81,6.81,0,0,0,3.16-1.34,21,21,0,0,0,2.14-2.21,18.35,18.35,0,0,1,2.92-2.23L318.23,130S315.29,131.34,314.28,131.69Z" transform="translate(-8.6 -12.5)"/><path class="cls-9" d="M309.5,89l.73,8.4s4.55,3.88,8.51-.5l-2.2-10.16Z" transform="translate(-8.6 -12.5)"/><path class="cls-10" d="M321.84,66.5a13,13,0,0,1,3.84,9.61c0,6.49-7.66,15.65-14.69,15.65-6.19,0-11.21-6.37-11.21-14.21,0-6,3-11.1,7.12-13.23A13.39,13.39,0,0,1,321.84,66.5Z" transform="translate(-8.6 -12.5)"/><path class="cls-11" d="M307.1,80.25a18.86,18.86,0,0,0-.47,2,1.27,1.27,0,0,0,.1.83,1.47,1.47,0,0,0,.76.52,1.13,1.13,0,0,1-1.06-.28,1.37,1.37,0,0,1-.3-1.13,3.2,3.2,0,0,1,.34-1A3.35,3.35,0,0,1,307.1,80.25Z" transform="translate(-8.6 -12.5)"/><path class="cls-12" d="M303.88,81.65c0,.63-.7,1.14-1.57,1.14s-1.57-.51-1.57-1.14.7-1.13,1.57-1.13S303.88,81,303.88,81.65Z" transform="translate(-8.6 -12.5)"/><path class="cls-12" d="M315.8,81.71c0,.69-.85,1.25-1.91,1.25s-1.9-.56-1.9-1.25.85-1.26,1.9-1.26S315.8,81,315.8,81.71Z" transform="translate(-8.6 -12.5)"/><ellipse class="cls-5" cx="303.14" cy="222.82" rx="28.1" ry="4.89"/><path class="cls-13" d="M332,226.11s1.62.33,1.39,2.77a56.09,56.09,0,0,0-.15,5.74l-.68.27a15.34,15.34,0,0,0-.6-3c-.2,0-1.57,3-3.18,3.64s-5.69,2-6.85.81,1.57-2.48,3-3.34S332,226.11,332,226.11Z" transform="translate(-8.6 -12.5)"/><path class="cls-10" d="M326.18,218.25s1.7,6.71.87,9.59-3,5.35-3.27,5.93,3,.19,4.2-.81,4.24-6.23,4-6.93a47.17,47.17,0,0,1-.5-8.86Z" transform="translate(-8.6 -12.5)"/><path class="cls-13" d="M305.07,226.82s1.57.55,1,2.94-.92,5.67-.92,5.67l-.71.17a15.62,15.62,0,0,0-.19-3c-.2-.06-1.88,2.77-3.57,3.23s-6,1.17-7-.16,1.88-2.25,3.44-2.91S305.07,226.82,305.07,226.82Z" transform="translate(-8.6 -12.5)"/><path class="cls-10" d="M300.38,218.26s.79,6.88-.42,9.63-3.72,4.89-4,5.43,3,.6,4.27-.24,5-5.61,4.94-6.33a46.36,46.36,0,0,1,.69-8.84Z" transform="translate(-8.6 -12.5)"/><path class="cls-14" d="M298.88,151.37s-2.92,29.23-3.32,39c-.36,8.61,3.66,35.29,3.66,35.29l7-.6s.82-25.58,2.79-34.1c1.51-6.5,6-26,6-26s2.32,18.49,3.09,24.65c1.1,8.76,6.94,35.88,6.94,35.88l8.21-.36s-2.18-27.37-2.06-36.49c.13-9.63,2.21-38.52,2.21-38.52Z" transform="translate(-8.6 -12.5)"/><path class="cls-15" d="M298.88,151.37s-2.92,29.23-3.32,39c-.36,8.61,3.66,35.29,3.66,35.29l7-.6s.82-25.58,2.79-34.1c1.51-6.5,6-26,6-26s-4-4.87-5.25-14Z" transform="translate(-8.6 -12.5)"/><path class="cls-16" d="M326.66,76.84s-1.54,4.75-9,.44a55.9,55.9,0,0,1-12.25-9.51s-2.44,6.29-6.29,8.81a35.11,35.11,0,0,1,.94-6.66c.8-2.53,3.08-7.8,11-8.12C329,61.08,326.66,76.84,326.66,76.84Z" transform="translate(-8.6 -12.5)"/><path class="cls-16" d="M325.45,73.41a5.77,5.77,0,0,0,2.54-7c-1.6-4.69-7.83-7.23-11-3" transform="translate(-8.6 -12.5)"/><path class="cls-16" d="M310.14,77.28c0,.56.29,1,.65,1s.66-.46.66-1-.3-1-.66-1S310.14,76.72,310.14,77.28Z" transform="translate(-8.6 -12.5)"/><path class="cls-16" d="M303.36,77.66c0,.56.3,1,.68,1s.68-.46.68-1-.3-1-.68-1S303.36,77.1,303.36,77.66Z" transform="translate(-8.6 -12.5)"/><path class="cls-17" d="M310.82,85s-3.21,1.52-5.77.24C305,86.61,308.3,89.25,310.82,85Z" transform="translate(-8.6 -12.5)"/><path d="M320.46,80.81c-.85,2.62.1,5.24,2.13,5.83S327,85.58,327.82,83s-.11-5.24-2.14-5.83S321.31,78.18,320.46,80.81Z" transform="translate(-8.6 -12.5)"/><path class="cls-18" d="M323,84.89A11.26,11.26,0,0,1,311.59,89" transform="translate(-8.6 -12.5)"/><path d="M311.77,88.22a.75.75,0,1,0-.27,1.48.75.75,0,0,0,.87-.61A.74.74,0,0,0,311.77,88.22Z" transform="translate(-8.6 -12.5)"/><path class="cls-18" d="M325.92,80.14s2.16-19.79-13.51-19.91c-3.58,0-10,1.31-11.87,7.58" transform="translate(-8.6 -12.5)"/><path class="cls-19" d="M295.73,116.2h0l-75.86-42a26.1,26.1,0,0,0-25.27,0l-75.87,42v0a10.74,10.74,0,0,0-5.61,9.44v105.6A10.75,10.75,0,0,0,123.89,242H290.6a10.75,10.75,0,0,0,10.75-10.75V125.65A10.74,10.74,0,0,0,295.73,116.2Z" transform="translate(-8.6 -12.5)"/><path class="cls-20" d="M138.38,55H258.91a12.33,12.33,0,0,1,12.33,12.33V203.1a0,0,0,0,1,0,0H126a0,0,0,0,1,0,0V67.31A12.33,12.33,0,0,1,138.38,55Z"/><g class="cls-21"><rect class="cls-22" x="144.47" y="76.86" width="108.36" height="0.85"/><rect class="cls-22" x="144.47" y="88.83" width="108.36" height="0.85"/><rect class="cls-22" x="144.47" y="100.81" width="108.36" height="0.85"/><rect class="cls-22" x="144.47" y="112.78" width="108.36" height="0.85"/><rect class="cls-22" x="144.47" y="124.76" width="108.36" height="0.85"/><rect class="cls-22" x="144.47" y="136.73" width="108.36" height="0.85"/><rect class="cls-22" x="144.47" y="148.71" width="108.36" height="0.85"/><rect class="cls-22" x="144.47" y="160.68" width="108.36" height="0.85"/></g><path class="cls-23" d="M285.56,137.05l-79.23,79.22a.44.44,0,0,1-.62,0l-79.22-79.22a18.88,18.88,0,0,0-13.35-5.53h0v99.73A10.75,10.75,0,0,0,123.89,242H290.6a10.75,10.75,0,0,0,10.75-10.75V131.52h-2.44A18.89,18.89,0,0,0,285.56,137.05Z" transform="translate(-8.6 -12.5)"/><path class="cls-24" d="M234,188.57l-27.71,27.7a.44.44,0,0,1-.62,0L178.44,189l-65.31,38.47v3.79A10.75,10.75,0,0,0,123.89,242H290.6a10.75,10.75,0,0,0,10.75-10.75v-3.39Z" transform="translate(-8.6 -12.5)"/><path class="cls-25" d="M301.35,231.25v-3.2L219.88,183a26.1,26.1,0,0,0-25.27,0l-81.47,45.06v3.2A10.75,10.75,0,0,0,123.89,242H290.6A10.75,10.75,0,0,0,301.35,231.25Z" transform="translate(-8.6 -12.5)"/><path class="cls-26" d="M260,229.26c0,2,.32-1.27,6.48-1.27,4.68,0,.43,12.21-7,12.64a2.16,2.16,0,0,0-1.27,2.55c.32,2,13.49-2.66,13.49-13.6C271.66,222.25,260,223.74,260,229.26Z" transform="translate(-8.6 -12.5)"/><path class="cls-26" d="M228.47,222s.86,28.43,18.76,28.43c16.19,0,18-28.43,18-28.43Z" transform="translate(-8.6 -12.5)"/><path class="cls-3" d="M234,225.19a19.13,19.13,0,0,1-4-.82c.7,6.89,3.87,26.15,17.22,26.07a13.2,13.2,0,0,0,2.49-.26C237.84,248,234.75,232.09,234,225.19Z" transform="translate(-8.6 -12.5)"/><path class="cls-3" d="M265.25,222c0,1.62-8.23,2.93-18.39,2.93s-18.39-1.31-18.39-2.93,8.23-2.93,18.39-2.93S265.25,220.39,265.25,222Z" transform="translate(-8.6 -12.5)"/><ellipse class="cls-26" cx="238.26" cy="209.51" rx="16.42" ry="2.3"/><path class="cls-27" d="M234.13,223.46a95.75,95.75,0,0,0,25.46,0,95.75,95.75,0,0,0-25.46,0Z" transform="translate(-8.6 -12.5)"/><circle class="cls-23" cx="156.9" cy="42" r="3.54"/><circle class="cls-23" cx="80.9" cy="214" r="1.77"/><circle class="cls-28" cx="157.58" cy="228.4" r="23.1"/><path class="cls-29" d="M169.76,231.37a5.23,5.23,0,1,0-5.23-5.23A5.23,5.23,0,0,0,169.76,231.37Zm-2,24.5c-1.82-1.67,6.76-16,5.63-20.65-.82-3.4-14.49-1.17-14.63-.17,0,0,3.94-.5,4.64,1.33s-4.64,12.83-5.62,17,3.65,5.5,6.75,5.5c3.66,0,9.57-2.5,9.43-3.67S169.61,257.53,167.78,255.87Z" transform="translate(-8.6 -12.5)"/><path class="cls-23" d="M297.4,57.77v-.5a6.75,6.75,0,0,0-6.75-6.74h-7.39a6.75,6.75,0,0,0-6.75,6.74v.5a6.75,6.75,0,0,0,6.75,6.75h7.39l.27,0a7.37,7.37,0,0,0,6,3.42,6,6,0,0,1-3-4.27A6.73,6.73,0,0,0,297.4,57.77Z" transform="translate(-8.6 -12.5)"/><path class="cls-26" d="M284.05,57.57a1.13,1.13,0,1,1-1.13-1.13A1.13,1.13,0,0,1,284.05,57.57Z" transform="translate(-8.6 -12.5)"/><path class="cls-26" d="M288.17,57.57a1.13,1.13,0,0,1-2.26,0,1.13,1.13,0,1,1,2.26,0Z" transform="translate(-8.6 -12.5)"/><path class="cls-26" d="M292.28,57.57a1.13,1.13,0,1,1-1.13-1.13A1.13,1.13,0,0,1,292.28,57.57Z" transform="translate(-8.6 -12.5)"/></g></g></svg>