<svg id="Слой_1" data-name="Слой 1" xmlns="http://www.w3.org/2000/svg" xmlns:xlink="http://www.w3.org/1999/xlink" viewBox="0 0 2881.17 1525.16"><defs><style>.cls-1{fill:#b8c5e8;}.cls-2{fill:#bed2fa;}.cls-3{fill:#3a49cd;}.cls-4{fill:#f3c625;}.cls-5{fill:#fff;}.cls-6{fill:#3662c1;}.cls-7{fill:#6d89cf;}.cls-8{fill:#ed6966;}.cls-9{fill:#fc9290;}.cls-10{fill:#060632;}.cls-11{fill:#c12424;}.cls-12{fill:#bc1c19;}.cls-13{fill:#f93534;}.cls-14{fill:#0b0754;}.cls-15{fill:#ea8888;}.cls-16{fill:#0b0b36;}.cls-17{fill:#87868d;}</style></defs><path class="cls-1" d="M237.43,1185.65S2.62,933.53,197.72,660.58C370.83,418.4,572.66,435,720.73,533.23c63.07,41.86,244.9,5.16,399.67-241.27,211-336.06,942.64-132.23,809.25,384.8-64.55,250.21,196.46,259.31,63.46,509.42Z" transform="translate(-81.23 338.98)"/><path class="cls-2" d="M688.37,698.25S572.2,532.9,526.81,554.33,688.37,698.25,688.37,698.25Z" transform="translate(-81.23 338.98)"/><path class="cls-2" d="M681,653.82s-17.74-124.33-45.71-119.45S681,653.82,681,653.82Z" transform="translate(-81.23 338.98)"/><path class="cls-2" d="M620.64,879.9s89.83-50.3,47.91-118.57c0,0-33.54-41.92-69.47-52.7,0,0,19.16,101.81,0,104.2s-13.18-115-13.18-115-94.62-45.51-131.75-41.92c0,0,58.69,99.41,39.53,97s-85-103-85-103-97-18-112.58,39.53,9.58,86.23,23.95,89.82,106.6,2.4,104.2,14.38S359.54,824.81,324.8,814c0,0,38.33,94.62,88.63,89.83s65.88-35.94,97-38.33,53.89,6,38.32,14.37S480.5,882.65,455.35,904s-45.51,34.56,1.2,44.14,130.55,3.6,147.32-32.34Z" transform="translate(-81.23 338.98)"/><path class="cls-3" d="M340.37,707.43S591.89,788.88,620.64,879.9c0,0-1.2,40.73,24,87.44v18s-26.35-61.08-40.72-69.47C603.87,915.83,660.16,836.79,340.37,707.43Z" transform="translate(-81.23 338.98)"/><path class="cls-3" d="M644.59,967.34s38.79,58.9,16.68,130.6l-10-2.68s9.68-79-10.61-118.69S644.59,967.34,644.59,967.34Z" transform="translate(-81.23 338.98)"/><path class="cls-4" d="M711.93,459l-134.4,694.83A22.91,22.91,0,0,0,600,1181.12H670.9Z" transform="translate(-81.23 338.98)"/><path class="cls-5" d="M1442.56,490.54s-92.89-20.4-74.12-92c0,0,18.41-46.05,47.28-65.2,0,0,10.34,95.13,27.93,92.11s-19.17-105.17-19.17-105.17,71.45-65.59,105.23-72.36c0,0-25.24,103.6-8.94,96.35s47.57-113.84,47.57-113.84,80.94-41.88,110.11,4.77,14.64,78.8,2.9,85.82-93.59,30.69-88.26,40.63,65.52,10.2,93.33-8.64c0,0-8.52,93.91-54.28,103.16s-67.86-14.11-96-7.89-46,19.74-30,23,61.08-15.87,89.05-3.7,49.49,18.35,10.76,39.34S1491.46,545.08,1467,517.81Z" transform="translate(-81.23 338.98)"/><path class="cls-5" d="M1644.09,263s-200.51,139.4-201.53,227.57c0,0,12,35.67,2.25,83.7l4.82,15.89s6.92-61.06,17.38-72.32C1467,517.81,1396.07,463,1644.09,263Z" transform="translate(-81.23 338.98)"/><path class="cls-5" d="M1444.81,574.24s-18.5,62.47,20.26,119.92l8.1-5s-29.72-67.22-22.43-107.77S1444.81,574.24,1444.81,574.24Z" transform="translate(-81.23 338.98)"/><path class="cls-6" d="M713.55,456.22l-89.08,682.22a37.78,37.78,0,0,0,37.47,42.68H792.62L718.94,453.75Z" transform="translate(-81.23 338.98)"/><path class="cls-7" d="M713.55,456.22l-39.88,677.87a44.43,44.43,0,0,0,44.35,47h194.9Z" transform="translate(-81.23 338.98)"/><path class="cls-3" d="M712.05,461.75l19.39,672.34a44.43,44.43,0,0,0,44.35,47h194.9Z" transform="translate(-81.23 338.98)"/><path class="cls-5" d="M1645.23,1181.12H876.72a39.72,39.72,0,0,1-39.08-32.59L720.7,509a47.28,47.28,0,0,1,46.5-55.78h759.46a39.74,39.74,0,0,1,39.09,32.59l118.56,648.4A39.73,39.73,0,0,1,1645.23,1181.12Z" transform="translate(-81.23 338.98)"/><path class="cls-4" d="M735.91,592.08h849.8l-21.79-120.74a22,22,0,0,0-21.65-18.09H719.14a7.21,7.21,0,0,0-7.09,8.5Z" transform="translate(-81.23 338.98)"/><path class="cls-6" d="M755.78,416.92a36.87,36.87,0,0,0-36.84,36.83H726a29.77,29.77,0,0,1,59.54,0,29.34,29.34,0,0,1-1.53,9.42,29.85,29.85,0,0,1-18.51,18.71,29.28,29.28,0,0,1-8,1.59v7.08a36.54,36.54,0,0,0,9.41-1.67,36.84,36.84,0,0,0-11.11-72Z" transform="translate(-81.23 338.98)"/><path class="cls-6" d="M767.17,486.75a8.23,8.23,0,0,1-.28,2.13,8,8,0,1,1-1.38-7A7.9,7.9,0,0,1,767.17,486.75Z" transform="translate(-81.23 338.98)"/><path class="cls-6" d="M887.87,416.92A36.87,36.87,0,0,0,851,453.75h7.07a29.77,29.77,0,1,1,39.51,28.13,29.49,29.49,0,0,1-8.05,1.59v7.08a36.54,36.54,0,0,0,9.41-1.67,36.83,36.83,0,0,0-11.1-72Z" transform="translate(-81.23 338.98)"/><path class="cls-6" d="M899.26,486.75a7.83,7.83,0,0,1-.29,2.13,8,8,0,1,1,.29-2.13Z" transform="translate(-81.23 338.98)"/><path class="cls-6" d="M1020,416.92a36.87,36.87,0,0,0-36.85,36.83h7.07a29.77,29.77,0,0,1,59.54,0,29.34,29.34,0,0,1-1.53,9.42,29.86,29.86,0,0,1-18.5,18.71,29.35,29.35,0,0,1-8.05,1.59v7.08a36.83,36.83,0,0,0-1.68-73.63Z" transform="translate(-81.23 338.98)"/><path class="cls-6" d="M1031.35,486.75a8.23,8.23,0,0,1-.28,2.13,8.08,8.08,0,1,1,.28-2.13Z" transform="translate(-81.23 338.98)"/><path class="cls-6" d="M1152.05,416.92a36.86,36.86,0,0,0-36.83,36.83h7.07a29.77,29.77,0,0,1,59.54,0,29.34,29.34,0,0,1-1.54,9.42,29.86,29.86,0,0,1-18.5,18.71,29.42,29.42,0,0,1-8,1.59v7.08a36.83,36.83,0,0,0,33.93-27.38,36.85,36.85,0,0,0-35.63-46.25Z" transform="translate(-81.23 338.98)"/><path class="cls-6" d="M1163.45,486.75a8.24,8.24,0,0,1-.29,2.13,8,8,0,1,1,.29-2.13Z" transform="translate(-81.23 338.98)"/><path class="cls-6" d="M1284.15,416.92a36.87,36.87,0,0,0-36.85,36.83h7.07a29.77,29.77,0,1,1,39.5,28.13,29.2,29.2,0,0,1-8,1.59v7.08a36.83,36.83,0,0,0-1.68-73.63Z" transform="translate(-81.23 338.98)"/><path class="cls-6" d="M1295.53,486.75a8.23,8.23,0,0,1-.28,2.13,8,8,0,1,1-1.38-7A7.9,7.9,0,0,1,1295.53,486.75Z" transform="translate(-81.23 338.98)"/><path class="cls-6" d="M1416.24,416.92a36.87,36.87,0,0,0-36.84,36.83h7.07a29.77,29.77,0,0,1,59.54,0,29.34,29.34,0,0,1-1.54,9.42,29.86,29.86,0,0,1-18.5,18.71,29.35,29.35,0,0,1-8,1.59v7.08a36.54,36.54,0,0,0,9.41-1.67,36.84,36.84,0,0,0-11.1-72Z" transform="translate(-81.23 338.98)"/><path class="cls-6" d="M1427.63,486.75a8.24,8.24,0,0,1-.29,2.13,8,8,0,1,1,.29-2.13Z" transform="translate(-81.23 338.98)"/><path class="cls-6" d="M1548.33,416.92a36.87,36.87,0,0,0-36.84,36.83h7.07a29.77,29.77,0,1,1,39.5,28.13,29.27,29.27,0,0,1-8,1.59v7.08A36.81,36.81,0,0,0,1584,463.17a36.85,36.85,0,0,0-35.62-46.25Z" transform="translate(-81.23 338.98)"/><path class="cls-6" d="M1559.72,486.75a8.23,8.23,0,0,1-.28,2.13,8,8,0,1,1-1.38-7A7.9,7.9,0,0,1,1559.72,486.75Z" transform="translate(-81.23 338.98)"/><path class="cls-7" d="M1227.34,818.91h-43a11.52,11.52,0,0,1-10.77-9l-8.29-43c-1-5,2.33-9,7.29-9h43a11.52,11.52,0,0,1,10.77,9l8.29,43C1235.59,814.85,1232.31,818.91,1227.34,818.91Z" transform="translate(-81.23 338.98)"/><path class="cls-7" d="M1335.74,818.91h-43a11.52,11.52,0,0,1-10.77-9l-8.28-43c-1-5,2.32-9,7.28-9h43a11.51,11.51,0,0,1,10.77,9l8.29,43C1344,814.85,1340.71,818.91,1335.74,818.91Z" transform="translate(-81.23 338.98)"/><path class="cls-6" d="M1444.14,818.91h-43a11.52,11.52,0,0,1-10.78-9l-8.28-43c-1-5,2.32-9,7.28-9h43a11.51,11.51,0,0,1,10.77,9l8.29,43C1452.39,814.85,1449.11,818.91,1444.14,818.91Z" transform="translate(-81.23 338.98)"/><path class="cls-7" d="M902.14,818.91h-43a11.5,11.5,0,0,1-10.77-9l-8.29-43c-1-5,2.32-9,7.29-9h43a11.53,11.53,0,0,1,10.77,9l8.28,43C910.38,814.85,907.1,818.91,902.14,818.91Z" transform="translate(-81.23 338.98)"/><path class="cls-4" d="M855.05,689.94H836.59a5,5,0,0,1-4.63-3.88L828.4,667.6a3.12,3.12,0,0,1,3.13-3.88H850a4.94,4.94,0,0,1,4.63,3.88l3.56,18.46A3.11,3.11,0,0,1,855.05,689.94Z" transform="translate(-81.23 338.98)"/><path class="cls-7" d="M1010.54,818.91h-43a11.51,11.51,0,0,1-10.77-9l-8.29-43c-1-5,2.32-9,7.29-9h43a11.53,11.53,0,0,1,10.77,9l8.29,43C1018.78,814.85,1015.5,818.91,1010.54,818.91Z" transform="translate(-81.23 338.98)"/><path class="cls-7" d="M1118.94,818.91h-43a11.51,11.51,0,0,1-10.77-9l-8.29-43c-1-5,2.32-9,7.29-9h43a11.52,11.52,0,0,1,10.77,9l8.29,43C1127.18,814.85,1123.91,818.91,1118.94,818.91Z" transform="translate(-81.23 338.98)"/><path class="cls-6" d="M1552.55,818.91h-43a11.5,11.5,0,0,1-10.77-9l-8.29-43c-1-5,2.32-9,7.29-9h43a11.53,11.53,0,0,1,10.77,9l8.28,43C1560.79,814.85,1557.51,818.91,1552.55,818.91Z" transform="translate(-81.23 338.98)"/><path class="cls-7" d="M1209.34,725.61h-43a11.53,11.53,0,0,1-10.77-9l-8.28-43c-1-5,2.32-9,7.28-9h43a11.5,11.5,0,0,1,10.77,9l8.29,43C1217.59,721.54,1214.31,725.61,1209.34,725.61Z" transform="translate(-81.23 338.98)"/><path class="cls-7" d="M1317.74,725.61h-43a11.53,11.53,0,0,1-10.78-9l-8.28-43c-1-5,2.32-9,7.29-9h43a11.5,11.5,0,0,1,10.77,9l8.29,43C1326,721.54,1322.71,725.61,1317.74,725.61Z" transform="translate(-81.23 338.98)"/><path class="cls-6" d="M1426.15,725.61h-43a11.51,11.51,0,0,1-10.77-9l-8.29-43c-1-5,2.32-9,7.29-9h43a11.52,11.52,0,0,1,10.77,9l8.28,43C1434.39,721.54,1431.11,725.61,1426.15,725.61Z" transform="translate(-81.23 338.98)"/><path class="cls-6" d="M1534.55,725.61h-43a11.52,11.52,0,0,1-10.77-9l-8.29-43c-1-5,2.32-9,7.29-9h43a11.52,11.52,0,0,1,10.77,9l8.28,43C1542.79,721.54,1539.51,725.61,1534.55,725.61Z" transform="translate(-81.23 338.98)"/><path class="cls-7" d="M1246.42,917.8h-43a11.5,11.5,0,0,1-10.77-9l-8.29-43c-1-5,2.32-9,7.29-9h43a11.52,11.52,0,0,1,10.77,9l8.28,43C1254.66,913.74,1251.38,917.8,1246.42,917.8Z" transform="translate(-81.23 338.98)"/><path class="cls-7" d="M1354.82,917.8h-43a11.51,11.51,0,0,1-10.77-9l-8.29-43c-1-5,2.32-9,7.29-9h43a11.52,11.52,0,0,1,10.77,9l8.29,43C1363.06,913.74,1359.78,917.8,1354.82,917.8Z" transform="translate(-81.23 338.98)"/><path class="cls-6" d="M1463.22,917.8h-43a11.52,11.52,0,0,1-10.77-9l-8.29-43c-1-5,2.32-9,7.29-9h43a11.52,11.52,0,0,1,10.77,9l8.29,43C1471.47,913.74,1468.19,917.8,1463.22,917.8Z" transform="translate(-81.23 338.98)"/><path class="cls-7" d="M921.21,917.8h-43a11.52,11.52,0,0,1-10.77-9l-8.28-43c-1-5,2.32-9,7.28-9h43a11.51,11.51,0,0,1,10.77,9l8.29,43C929.46,913.74,926.18,917.8,921.21,917.8Z" transform="translate(-81.23 338.98)"/><path class="cls-7" d="M1029.61,917.8h-43a11.52,11.52,0,0,1-10.77-9l-8.28-43c-1-5,2.32-9,7.28-9h43a11.5,11.5,0,0,1,10.77,9l8.29,43C1037.86,913.74,1034.58,917.8,1029.61,917.8Z" transform="translate(-81.23 338.98)"/><path class="cls-7" d="M1138,917.8h-43a11.5,11.5,0,0,1-10.77-9l-8.29-43c-1-5,2.32-9,7.29-9h43a11.52,11.52,0,0,1,10.78,9l8.28,43C1146.26,913.74,1143,917.8,1138,917.8Z" transform="translate(-81.23 338.98)"/><path class="cls-6" d="M1571.62,917.8h-43a11.52,11.52,0,0,1-10.77-9l-8.29-43c-.95-5,2.33-9,7.29-9h43a11.51,11.51,0,0,1,10.77,9l8.29,43C1579.87,913.74,1576.59,917.8,1571.62,917.8Z" transform="translate(-81.23 338.98)"/><path class="cls-7" d="M1265.49,1016.69h-43a11.52,11.52,0,0,1-10.77-9l-8.28-43c-1-5,2.32-9,7.28-9h43a11.51,11.51,0,0,1,10.77,9l8.29,43C1273.74,1012.63,1270.46,1016.69,1265.49,1016.69Z" transform="translate(-81.23 338.98)"/><path class="cls-7" d="M1373.89,1016.69h-43a11.52,11.52,0,0,1-10.78-9l-8.28-43c-1-5,2.32-9,7.28-9h43a11.51,11.51,0,0,1,10.77,9l8.29,43C1382.14,1012.63,1378.86,1016.69,1373.89,1016.69Z" transform="translate(-81.23 338.98)"/><path class="cls-6" d="M1482.29,1016.69h-43a11.5,11.5,0,0,1-10.77-9l-8.29-43c-1-5,2.32-9,7.29-9h43a11.53,11.53,0,0,1,10.78,9l8.28,43C1490.54,1012.63,1487.26,1016.69,1482.29,1016.69Z" transform="translate(-81.23 338.98)"/><path class="cls-7" d="M940.29,1016.69h-43a11.51,11.51,0,0,1-10.77-9l-8.29-43c-1-5,2.32-9,7.29-9h43a11.53,11.53,0,0,1,10.77,9l8.28,43C948.53,1012.63,945.25,1016.69,940.29,1016.69Z" transform="translate(-81.23 338.98)"/><path class="cls-4" d="M1048.69,1016.69h-43a11.51,11.51,0,0,1-10.77-9l-8.29-43c-1-5,2.32-9,7.29-9h43a11.53,11.53,0,0,1,10.77,9l8.29,43C1056.93,1012.63,1053.66,1016.69,1048.69,1016.69Z" transform="translate(-81.23 338.98)"/><path class="cls-7" d="M1157.09,1016.69h-43a11.51,11.51,0,0,1-10.77-9l-8.29-43c-1-5,2.33-9,7.29-9h43a11.52,11.52,0,0,1,10.77,9l8.29,43C1165.34,1012.63,1162.06,1016.69,1157.09,1016.69Z" transform="translate(-81.23 338.98)"/><path class="cls-6" d="M1590.7,1016.69h-43a11.5,11.5,0,0,1-10.77-9l-8.29-43c-1-5,2.32-9,7.29-9h43a11.53,11.53,0,0,1,10.77,9l8.28,43C1598.94,1012.63,1595.66,1016.69,1590.7,1016.69Z" transform="translate(-81.23 338.98)"/><path class="cls-7" d="M1283.49,1110h-43a11.51,11.51,0,0,1-10.77-9l-8.29-43c-1-5,2.32-9,7.29-9h43a11.52,11.52,0,0,1,10.77,9l8.29,43C1291.74,1105.93,1288.46,1110,1283.49,1110Z" transform="translate(-81.23 338.98)"/><path class="cls-7" d="M1391.89,1110h-43a11.52,11.52,0,0,1-10.77-9l-8.29-43c-.95-5,2.33-9,7.29-9h43a11.52,11.52,0,0,1,10.77,9l8.29,43C1400.14,1105.93,1396.86,1110,1391.89,1110Z" transform="translate(-81.23 338.98)"/><path class="cls-6" d="M1500.29,1110h-43a11.52,11.52,0,0,1-10.77-9l-8.28-43c-1-5,2.32-9,7.28-9h43a11.51,11.51,0,0,1,10.77,9l8.29,43C1508.54,1105.93,1505.26,1110,1500.29,1110Z" transform="translate(-81.23 338.98)"/><path class="cls-7" d="M958.29,1110h-43a11.5,11.5,0,0,1-10.77-9l-8.29-43c-1-5,2.32-9,7.29-9h43a11.53,11.53,0,0,1,10.78,9l8.28,43C966.53,1105.93,963.25,1110,958.29,1110Z" transform="translate(-81.23 338.98)"/><path class="cls-7" d="M1066.69,1110h-43a11.5,11.5,0,0,1-10.77-9l-8.29-43c-1-5,2.32-9,7.29-9h43a11.53,11.53,0,0,1,10.77,9l8.28,43C1074.93,1105.93,1071.65,1110,1066.69,1110Z" transform="translate(-81.23 338.98)"/><path class="cls-7" d="M1175.09,1110h-43a11.51,11.51,0,0,1-10.77-9l-8.29-43c-1-5,2.32-9,7.29-9h43a11.53,11.53,0,0,1,10.77,9l8.29,43C1183.33,1105.93,1180.05,1110,1175.09,1110Z" transform="translate(-81.23 338.98)"/><path class="cls-7" d="M985.26,673H871.45a3.06,3.06,0,0,1-3.05-3.05h0a3.05,3.05,0,0,1,3.05-3H985.26a3.06,3.06,0,0,1,3,3h0A3.06,3.06,0,0,1,985.26,673Z" transform="translate(-81.23 338.98)"/><path class="cls-7" d="M988.72,686.77H874.91a3.06,3.06,0,0,1-3-3h0a3.06,3.06,0,0,1,3-3.05H988.72a3.06,3.06,0,0,1,3,3.05h0A3.06,3.06,0,0,1,988.72,686.77Z" transform="translate(-81.23 338.98)"/><path class="cls-5" d="M863.2,570.35H824.14a5.83,5.83,0,0,1-5.81-5.82h0a5.83,5.83,0,0,1,5.81-5.82H863.2a5.83,5.83,0,0,1,5.81,5.82h0A5.83,5.83,0,0,1,863.2,570.35Z" transform="translate(-81.23 338.98)"/><path class="cls-5" d="M970.36,570.35H931.31a5.84,5.84,0,0,1-5.82-5.82h0a5.84,5.84,0,0,1,5.82-5.82h39.05a5.84,5.84,0,0,1,5.82,5.82h0A5.84,5.84,0,0,1,970.36,570.35Z" transform="translate(-81.23 338.98)"/><path class="cls-5" d="M1077.52,570.35h-39a5.84,5.84,0,0,1-5.82-5.82h0a5.84,5.84,0,0,1,5.82-5.82h39a5.84,5.84,0,0,1,5.82,5.82h0A5.84,5.84,0,0,1,1077.52,570.35Z" transform="translate(-81.23 338.98)"/><path class="cls-5" d="M1184.69,570.35h-39.06a5.84,5.84,0,0,1-5.82-5.82h0a5.84,5.84,0,0,1,5.82-5.82h39.06a5.84,5.84,0,0,1,5.81,5.82h0A5.84,5.84,0,0,1,1184.69,570.35Z" transform="translate(-81.23 338.98)"/><path class="cls-5" d="M1291.85,570.35h-39.06a5.83,5.83,0,0,1-5.81-5.82h0a5.83,5.83,0,0,1,5.81-5.82h39.06a5.83,5.83,0,0,1,5.81,5.82h0A5.83,5.83,0,0,1,1291.85,570.35Z" transform="translate(-81.23 338.98)"/><path class="cls-5" d="M1399,570.35h-39a5.84,5.84,0,0,1-5.82-5.82h0a5.84,5.84,0,0,1,5.82-5.82h39a5.84,5.84,0,0,1,5.82,5.82h0A5.84,5.84,0,0,1,1399,570.35Z" transform="translate(-81.23 338.98)"/><path class="cls-5" d="M1506.17,570.35h-39.05a5.84,5.84,0,0,1-5.82-5.82h0a5.84,5.84,0,0,1,5.82-5.82h39.05a5.84,5.84,0,0,1,5.82,5.82h0A5.84,5.84,0,0,1,1506.17,570.35Z" transform="translate(-81.23 338.98)"/><path class="cls-8" d="M1259.17,726.45c-8.62,0-14.9-2.74-18.33-8.05-6.56-10.18-1.49-24.46,15.06-42.44a210.63,210.63,0,0,1,26.35-23.64,1.25,1.25,0,0,1,1.48,2c-.55.41-55,40.7-40.79,62.72,4.49,7,14.11,7.44,21.4,6.6,13.49-1.56,31.07-8.83,47-19.43,16.52-11,28.16-23.34,31.94-33.93,2.47-6.95,1.7-11.87-2.28-14.63-5.15-3.57-15.91-3.57-28.77,0-12.32,3.41-24.73,9.54-32.37,16a1.25,1.25,0,1,1-1.61-1.91c7.9-6.68,20.67-13,33.31-16.5,13.78-3.81,25-3.68,30.86.36,3.45,2.39,6.82,7.37,3.2,17.51-4,11.09-15.94,23.91-32.9,35.18-16.28,10.81-34.27,18.22-48.12,19.82A47.79,47.79,0,0,1,1259.17,726.45Z" transform="translate(-81.23 338.98)"/><path class="cls-9" d="M1484.67,655.64l-4.43-8.37s2.2-14.9-16.48-24.33c0,0-6.82-2.78-10.68,2.79-3.55,5.12,6.77,4.2,6.21,13s3.61,13.92,9.41,16.78l4.79,5.55Z" transform="translate(-81.23 338.98)"/><path class="cls-10" d="M1661.16,635.64s-16,78.72-104.29,104.44c-27.55,8-90.14-82.68-90.14-82.68s2.2-8.36,16-6.44c0,0,60.94,40.35,68.61,44.73,6.81,3.89,51.58-50,72-58.68A52.1,52.1,0,0,1,1661.16,635.64Z" transform="translate(-81.23 338.98)"/><rect class="cls-4" x="1443.19" y="586.04" width="19.42" height="97.7" transform="matrix(-0.18, -0.98, 0.98, -0.18, 1011.99, 2518.09)"/><polygon class="cls-4" points="1301.3 986.89 1325.4 992.31 1321.87 973.21 1301.3 986.89"/><path class="cls-4" d="M1511.5,620.71l1.12,6a6.84,6.84,0,0,1-5.48,8l-4.44.82-3.54-19.1,4.83-.89A6.44,6.44,0,0,1,1511.5,620.71Z" transform="translate(-81.23 338.98)"/><path class="cls-10" d="M1766.53,1130.47s11,10,8.81,17.09-12,11.84-13.35,20.51-6.68,13.41-11.49,13.41h-22.91s-3.54-6.1,5-7.94,11.76-12,11.23-21.51a165.74,165.74,0,0,1,.8-22.08l18.16-4.21Z" transform="translate(-81.23 338.98)"/><path class="cls-10" d="M1632.21,1156.31s2,22.74-2.85,25.11l-61.51-.13s0-7.1,9.88-8.67,27.24-7.37,30.18-20.25S1632.21,1156.31,1632.21,1156.31Z" transform="translate(-81.23 338.98)"/><path class="cls-11" d="M1580.27,835.1s3.24,39.86,7.06,87.77c5.18,65.09,11.41,145,12,160.18,1.07,26.3,5.34,68.37,5.34,68.37s10.15,10,30.45,5.78c0,0,18.09-60,23.25-123.59l.24-3.14c4.81-64.68,12.29-200.89,12.29-200.89Z" transform="translate(-81.23 338.98)"/><path class="cls-12" d="M1580.27,835.1s3.24,39.86,7.06,87.77l71.07,110.74.24-3.14c4.81-64.68,12.29-200.89,12.29-200.89Z" transform="translate(-81.23 338.98)"/><path class="cls-13" d="M1595.09,839.83S1653.57,984.19,1692,1052s50.47,86.77,50.47,86.77,22-8.68,24-14.59c0,0-14.71-131-40.46-162.9-14.55-18-31.64-72.17-32.44-91.11s-5.21-56.4-5.21-56.4Z" transform="translate(-81.23 338.98)"/><path class="cls-9" d="M1672,617.37s-39.57,19.09-62.38,12A53.93,53.93,0,0,1,1625.09,617c-.79-4.58-1.4-8.56-1.75-11.93a109.48,109.48,0,0,1-1-12.18l15.27-12,14.48-11.5C1651,601.73,1672,617.37,1672,617.37Z" transform="translate(-81.23 338.98)"/><path class="cls-14" d="M1577.77,838.39a3.56,3.56,0,0,0,2.38,1c8.59-.18,33.6,4.57,54.74,2.42,17.9-1.73,33.69-6.91,50.62-14.34,2.29-1,7.47-3.8,7.37-6.22-.09-2.76-.34-6.65-.69-11.67-.71-9.87-1.71-23.88-2-40.5-.24-12.31-.1-26.06.79-40.62l.15-2.95c.25-5.34.38-10.71.38-16a278.23,278.23,0,0,0-3.59-47.51c-4.31-25.05-12.38-44.66-24.31-53.39-1.58-1.21-11.41,3.54-20.53,7.95a38,38,0,0,1-24.56,2.94l-7.9,6.91c-9.57,8.72-20.1,20.73-24.75,38.87-3.85,15.38-6.13,43.19-7.37,72-.6,13.13-1,26.26-1.22,38.79v.43c-.09,1.29-.09,2.6-.09,3.9C1576.72,812.47,1577.16,838,1577.77,838.39Z" transform="translate(-81.23 338.98)"/><path class="cls-15" d="M1652.38,581.78s-10,18.23-29,23.32a109.48,109.48,0,0,1-1-12.18l15.27-12Z" transform="translate(-81.23 338.98)"/><path class="cls-9" d="M1615.41,592.4s37.75,6.17,41.29-17,10.81-38-13.15-43-30,3.24-33.09,10.7S1605.68,590.19,1615.41,592.4Z" transform="translate(-81.23 338.98)"/><path class="cls-16" d="M1670.42,529.63c.35-.4,1.14-.71,2.9-.81a7.19,7.19,0,0,0-3.29-.93c-.37-2.44-1.67-6.77-5.88-7.82a5.27,5.27,0,0,1,2.56,3.8c-4.88-5-15.32-8.65-44.25-6.37-38.13,3-25.56,27.42-20.63,30.34s17.36-5.07,26.56-4.34,10.94,14,14.06,15.84,1.9-1.4,6.12-3.31,4.62,5.09,3.4,9.63,4.58,10.55,4.58,10.55l5.86-6.31c5.86-6.31,11.39-33,8.72-38.75Z" transform="translate(-81.23 338.98)"/><path class="cls-9" d="M1480.16,646.88s1.3-5.13-2.26-7.44-6.84-8.58-8.34-7.73c-3.1,1.76,1.7,7.23.82,14.06C1470.08,648.16,1475.64,654.42,1480.16,646.88Z" transform="translate(-81.23 338.98)"/><path class="cls-10" d="M1690.16,769c-.24-12.31-.1-26.06.79-40.62l.15-2.95c-3.59-17.78-9-33.55-17-34.06C1674.09,691.4,1650.29,728.8,1690.16,769Z" transform="translate(-81.23 338.98)"/><path class="cls-9" d="M1721.64,833.54s-2,19.28-4.16,22.93-11.44,15.31-15.39,17.6,2.41-15.36,1.61-18.8-3.25,6.27-5,6.5-1.3-8.51-1.36-11.68,8.47-11,11.48-17.79S1721.64,833.54,1721.64,833.54Z" transform="translate(-81.23 338.98)"/><path class="cls-14" d="M1663.56,608.4s23.89,11.31,35.34,28.69c17.76,27,38.35,125.26,38.73,134.37s-15,73.36-15,73.36-15.62-1-19.65-8.92c0,0,3.12-66,1.14-70.27s-65.15-88.56-58-106.56S1663.56,608.4,1663.56,608.4Z" transform="translate(-81.23 338.98)"/><polygon class="cls-8" points="1313.65 978.68 1314.91 989.95 1301.3 986.89 1313.65 978.68"/><path class="cls-17" d="M2128,1185.87H84a2.74,2.74,0,0,1-2.72-2.72h0a2.72,2.72,0,0,1,2.72-2.72H2128a2.72,2.72,0,0,1,2.71,2.72h0A2.73,2.73,0,0,1,2128,1185.87Z" transform="translate(-81.23 338.98)"/><image width="535" height="432" transform="translate(2169.19 0) scale(1.33)" xlink:href="3679474-01.png"/></svg>