<svg id="Layer_1" data-name="Layer 1" xmlns="http://www.w3.org/2000/svg" viewBox="0 0 100 100"><defs><style>.cls-1{fill:#2e7782;}</style></defs><path class="cls-1" d="M21.53,30.46A12.92,12.92,0,0,0,8.63,43.33a12.12,12.12,0,0,0,5.24,10A21.51,21.51,0,0,0,0,73.5a2.27,2.27,0,0,0,2.22,2.15,2.28,2.28,0,0,0,2.15-2.21,17.08,17.08,0,0,1,17-17.27,17.27,17.27,0,0,1,14.21,7.28A21.33,21.33,0,0,0,28,79.94a2.18,2.18,0,1,0,4.36-.07,17.17,17.17,0,1,1,34.33-.16A2.44,2.44,0,0,0,68.83,82,2.3,2.3,0,0,0,71,79.64a21.35,21.35,0,0,0-7.59-16.16,17.14,17.14,0,0,1,31.17,9.85,2.19,2.19,0,0,0,4.37,0A21.47,21.47,0,0,0,88.68,55.1a22,22,0,0,0-3.5-1.75,12.19,12.19,0,0,0,5.14-10,12.9,12.9,0,0,0-25.79,0,12.17,12.17,0,0,0,5.17,10A21.29,21.29,0,0,0,59.86,61a21.81,21.81,0,0,0-2.59-1.21,12.28,12.28,0,0,0,5.11-10,12.9,12.9,0,0,0-25.8,0,12.26,12.26,0,0,0,5.21,10A20.62,20.62,0,0,0,39.13,61a21.34,21.34,0,0,0-9.91-7.68,12.1,12.1,0,0,0,5.21-10,12.92,12.92,0,0,0-12.9-12.87Zm0,4.29a8.58,8.58,0,1,1-8.6,8.58A8.55,8.55,0,0,1,21.53,34.75Zm55.9,0a8.58,8.58,0,1,1-8.6,8.58A8.55,8.55,0,0,1,77.43,34.75Zm-28,6.43a8.59,8.59,0,1,1,0,17.17,8.34,8.34,0,0,1-8.6-8.58A8.56,8.56,0,0,1,49.48,41.18Z"/></svg>