<svg id="Layer_1" data-name="Layer 1" xmlns="http://www.w3.org/2000/svg" viewBox="0 0 100 100"><defs><style>.cls-1{fill:#2e7782;}</style></defs><path class="cls-1" d="M82.65,38.07,72.38,28V20.39a3.28,3.28,0,0,0-3.29-3.28H31.29A3.28,3.28,0,0,0,28,20.39V28L17.76,38.07a3.35,3.35,0,0,0-1,2.38v7.42a7.91,7.91,0,0,0,7.91,7.91H25a7.9,7.9,0,0,0,6.17-3,7.9,7.9,0,0,0,6.17,3h.33a7.9,7.9,0,0,0,6.17-3,7.9,7.9,0,0,0,6.17,3h.34a7.9,7.9,0,0,0,6.17-3,7.87,7.87,0,0,0,6.2,3h.33a7.88,7.88,0,0,0,6.17-3,7.9,7.9,0,0,0,6.17,3h.34a7.91,7.91,0,0,0,7.9-7.91V40.45A3.38,3.38,0,0,0,82.65,38.07ZM31.48,20.59H68.9V27H31.48Zm-2,27.28A4.43,4.43,0,0,1,25,52.3h-.34a4.43,4.43,0,0,1-4.43-4.43V41.53h9.2Zm12.68,0a4.44,4.44,0,0,1-4.44,4.43h-.34a4.44,4.44,0,0,1-4.43-4.43V41.53h9.21Zm12.67,0a4.43,4.43,0,0,1-4.43,4.43H50a4.43,4.43,0,0,1-4.43-4.43V41.53h9.2Zm12.68,0A4.43,4.43,0,0,1,63,52.3h-.31a4.44,4.44,0,0,1-4.44-4.43V41.53h9.2Zm1.74-9.82H22.75l7.71-7.59H70l7.71,7.59Zm11,9.82a4.43,4.43,0,0,1-4.43,4.43H75.4A4.43,4.43,0,0,1,71,47.87h0V41.53h9.2Zm-11.87,27A1.74,1.74,0,0,0,70,73.1V62.66a1.74,1.74,0,0,0-1.74-1.74h-14a1.74,1.74,0,0,0-1.74,1.74V73.1a1.74,1.74,0,0,0,1.74,1.74ZM56,64.4H66.58v7H56ZM81.87,79.71H77.41v-20a1.74,1.74,0,1,0-3.48,0h0v20H48.18v-17a1.73,1.73,0,0,0-1.74-1.74H33.18a1.74,1.74,0,0,0-1.76,1.72v17H26.48v-20a1.74,1.74,0,0,0-3.48,0h0v20H18.5a1.74,1.74,0,0,0,0,3.48H81.9a1.74,1.74,0,0,0,0-3.48Zm-37.16,0H34.89V64.4h9.85Z"/></svg>