<svg xmlns="http://www.w3.org/2000/svg" xmlns:xlink="http://www.w3.org/1999/xlink" viewBox="0 0 326.56 304"><defs><style>.cls-1,.cls-25,.cls-3,.cls-4,.cls-5{fill:none;}.cls-2{isolation:isolate;}.cls-3,.cls-4{stroke:#fff;}.cls-3,.cls-5{stroke-miterlimit:10;}.cls-25,.cls-4{stroke-linecap:round;stroke-linejoin:round;}.cls-5{stroke:#4d4add;stroke-width:2px;}.cls-6{fill:#142c5b;}.cls-7{fill:#979eb0;}.cls-8{fill:#2e87bf;}.cls-9{fill:#226caf;}.cls-10{fill:#b3b3f4;}.cls-11{fill:#fff;}.cls-12{fill:#bdbdff;}.cls-13{fill:#4d4add;}.cls-14{fill:#195887;}.cls-15{fill:#154c6d;}.cls-16{fill:#f3c625;}.cls-17{fill:#fc9f9f;opacity:0.25;mix-blend-mode:multiply;}.cls-18{fill:#ffeae3;}.cls-19{fill:#f9a08f;}.cls-20{fill:#e0a47c;}.cls-21{fill:#cf8654;}.cls-22{fill:#624cd5;}.cls-23{fill:#f93534;}.cls-24{fill:#c12424;}.cls-25{stroke:#1e1240;}.cls-26{fill:#bf991f;}.cls-27{fill:#ce8452;}.cls-28{fill:#948bf2;}.cls-29{fill:#482e99;}.cls-30{fill:#1c1459;}.cls-31{fill:#1e1240;}.cls-32{fill:#ef8273;}.cls-33{clip-path:url(#clip-path);}.cls-34{fill:#b8c5e8;}</style><clipPath id="clip-path"><rect class="cls-1" x="80.44" y="54.48" width="119.71" height="208.24"/></clipPath></defs><g class="cls-2"><g id="OBJECTS"><path class="cls-3" d="M0,115.58a1.48,1.48,0,0,1-1.48,1.48A1.48,1.48,0,0,1-3,115.58a1.49,1.49,0,0,1,1.48-1.48A1.48,1.48,0,0,1,0,115.58Z"/><path class="cls-3" d="M7.07,226.21a1.48,1.48,0,1,1-1.48-1.47A1.48,1.48,0,0,1,7.07,226.21Z"/><path class="cls-3" d="M251.39,78.4a1.48,1.48,0,1,1-1.48-1.48A1.48,1.48,0,0,1,251.39,78.4Z"/><path class="cls-3" d="M169.16,11.86a1.48,1.48,0,1,1-1.48-1.48A1.48,1.48,0,0,1,169.16,11.86Z"/><path class="cls-3" d="M291.87,224.74a1.48,1.48,0,1,1-1.48-1.48A1.47,1.47,0,0,1,291.87,224.74Z"/><line class="cls-4" x1="61.57" y1="7.29" x2="61.57" y2="11.86"/><line class="cls-4" x1="63.86" y1="9.57" x2="59.28" y2="9.57"/><line class="cls-4" x1="207.21" y1="-4.58" x2="207.21"/><line class="cls-4" x1="282.59" y1="56.45" x2="282.59" y2="61.03"/><line class="cls-4" x1="284.88" y1="58.74" x2="280.3" y2="58.74"/><line class="cls-4" x1="267.19" y1="172.9" x2="267.19" y2="177.48"/><line class="cls-4" x1="269.47" y1="175.19" x2="264.9" y2="175.19"/><line class="cls-4" x1="195.65" y1="20.18" x2="195.65" y2="24.75"/><line class="cls-4" x1="197.94" y1="22.46" x2="193.36" y2="22.46"/><line class="cls-5" x1="39.04" y1="278.96" x2="246.13" y2="278.96"/><line class="cls-5" x1="33.97" y1="278.96" x2="26.03" y2="278.96"/><line class="cls-5" x1="258.44" y1="278.96" x2="250.5" y2="278.96"/><rect class="cls-6" x="71.08" y="35.42" width="138.88" height="244.01" rx="15.58"/><rect class="cls-7" x="80.65" y="52.23" width="119.73" height="210.37"/><path class="cls-8" d="M152.29,45.35H128.74a1.14,1.14,0,1,1,0-2.27h23.55a1.14,1.14,0,1,1,0,2.27Z"/><path class="cls-9" d="M145.32,271.51a4.81,4.81,0,1,1-4.8-4.8A4.8,4.8,0,0,1,145.32,271.51Z"/><rect class="cls-10" x="90.13" y="232.3" width="100.78" height="30.42" rx="4.12"/><path class="cls-11" d="M109.27,240.6l1.13,2.94,3.15.16a.69.69,0,0,1,.39,1.22l-2.45,2,.82,3a.69.69,0,0,1-1,.76L108.63,249,106,250.71a.69.69,0,0,1-1-.76l.82-3-2.46-2a.69.69,0,0,1,.4-1.22l3.15-.16L108,240.6A.68.68,0,0,1,109.27,240.6Z"/><path class="cls-11" d="M125.21,240.6l1.13,2.94,3.15.16a.69.69,0,0,1,.4,1.22l-2.46,2,.82,3a.69.69,0,0,1-1,.76L124.57,249l-2.64,1.72a.69.69,0,0,1-1-.76l.82-3-2.45-2a.69.69,0,0,1,.39-1.22l3.15-.16,1.13-2.94A.68.68,0,0,1,125.21,240.6Z"/><path class="cls-11" d="M141.16,240.6l1.13,2.94,3.15.16a.69.69,0,0,1,.39,1.22l-2.45,2,.82,3a.69.69,0,0,1-1,.76L140.52,249l-2.65,1.72a.69.69,0,0,1-1-.76l.81-3-2.45-2a.69.69,0,0,1,.4-1.22l3.15-.16,1.13-2.94A.68.68,0,0,1,141.16,240.6Z"/><path class="cls-11" d="M157.1,240.6l1.13,2.94,3.15.16a.69.69,0,0,1,.4,1.22l-2.46,2,.82,3a.69.69,0,0,1-1,.76L156.46,249l-2.64,1.72a.69.69,0,0,1-1-.76l.82-3-2.45-2a.69.69,0,0,1,.39-1.22l3.15-.16,1.13-2.94A.68.68,0,0,1,157.1,240.6Z"/><path class="cls-11" d="M173.05,240.6l1.12,2.94,3.15.16a.69.69,0,0,1,.4,1.22l-2.45,2,.82,3a.69.69,0,0,1-1,.76L172.41,249l-2.65,1.72a.69.69,0,0,1-1-.76l.82-3-2.45-2a.69.69,0,0,1,.4-1.22l3.15-.16,1.12-2.94A.69.69,0,0,1,173.05,240.6Z"/><rect class="cls-12" x="90.13" y="162.22" width="100.78" height="63.07" rx="4.12"/><path class="cls-11" d="M109.27,170.51l1.13,3,3.15.16a.68.68,0,0,1,.39,1.22l-2.45,2,.82,3.05a.69.69,0,0,1-1,.75l-2.64-1.72L106,180.62a.68.68,0,0,1-1-.75l.82-3.05-2.46-2a.69.69,0,0,1,.4-1.22l3.15-.16,1.13-3A.68.68,0,0,1,109.27,170.51Z"/><path class="cls-11" d="M125.21,170.51l1.13,3,3.15.16a.69.69,0,0,1,.4,1.22l-2.46,2,.82,3.05a.68.68,0,0,1-1,.75l-2.65-1.72-2.64,1.72a.69.69,0,0,1-1-.75l.82-3.05-2.45-2a.68.68,0,0,1,.39-1.22l3.15-.16,1.13-3A.68.68,0,0,1,125.21,170.51Z"/><path class="cls-11" d="M141.16,170.51l1.13,3,3.15.16a.69.69,0,0,1,.39,1.22l-2.45,2,.82,3.05a.69.69,0,0,1-1,.75l-2.64-1.72-2.65,1.72a.68.68,0,0,1-1-.75l.81-3.05-2.45-2a.69.69,0,0,1,.4-1.22l3.15-.16,1.13-3A.68.68,0,0,1,141.16,170.51Z"/><path class="cls-11" d="M157.1,170.51l1.13,3,3.15.16a.69.69,0,0,1,.4,1.22l-2.46,2,.82,3.05a.69.69,0,0,1-1,.75l-2.64-1.72-2.64,1.72a.69.69,0,0,1-1-.75l.82-3.05-2.45-2a.68.68,0,0,1,.39-1.22l3.15-.16,1.13-3A.68.68,0,0,1,157.1,170.51Z"/><path class="cls-11" d="M173.05,170.51l1.12,3,3.15.16a.69.69,0,0,1,.4,1.22l-2.45,2,.82,3.05a.69.69,0,0,1-1,.75l-2.64-1.72-2.65,1.72a.69.69,0,0,1-1-.75l.82-3.05-2.45-2a.69.69,0,0,1,.4-1.22l3.15-.16,1.12-3A.69.69,0,0,1,173.05,170.51Z"/><rect class="cls-10" x="133.69" y="187.09" width="50.32" height="8.09" rx="4.05"/><path class="cls-10" d="M180,206H137.73a4,4,0,0,1-4-4.05h0a4,4,0,0,1,4-4H180a4,4,0,0,1,4,4h0A4,4,0,0,1,180,206Z"/><path class="cls-10" d="M156,216.82H137.73a4,4,0,0,1-4-4h0a4,4,0,0,1,4-4H156a4.05,4.05,0,0,1,4,4h0A4.05,4.05,0,0,1,156,216.82Z"/><rect class="cls-10" x="98.56" y="187.09" width="29.73" height="29.73" rx="2.93"/><polygon class="cls-10" points="123.42 211 120.94 192.28 105.3 192.28 102.82 211 110.69 212.65 113.12 205.3 115.55 212.65 123.42 211"/><path class="cls-10" d="M142.29,215.18H140a.47.47,0,0,1-.38-.3.41.41,0,0,1,0-.16v-4h0a.46.46,0,0,1,.46-.46h2a1.4,1.4,0,0,1,1.16,2.18v0l-.06.07.06-.07A1.51,1.51,0,0,1,142.29,215.18Zm.49-1.84a.72.72,0,0,0-.7-.26h-.84a.46.46,0,0,1-.45-.46h0a.45.45,0,0,1,.41-.45h.87a.48.48,0,0,0,0-1h-1.55v3.06h1.75A.59.59,0,0,0,142.78,213.34Zm-.79-.26h0Zm.17,0a1.4,1.4,0,0,0,.83-.34A1.4,1.4,0,0,1,142.16,213.07Zm.05-.91h0Zm.89.46,0,0Zm0,0,0-.05Z"/><path class="cls-10" d="M148.76,210.71v2.62h0v0a2.14,2.14,0,0,1-4.26,0v0h0v-2.62a.46.46,0,1,1,.92,0h0v2.63a1.16,1.16,0,0,0,1.21,1h0a1.17,1.17,0,0,0,1.21-1h0v0h0v-2.61h0a.46.46,0,1,1,.92,0Z"/><path class="cls-10" d="M154,211l-1.76,2.42v1.28h0a.44.44,0,0,1-.38.45h-.14a.45.45,0,0,1-.39-.45h0v-1.28L149.55,211h0a.44.44,0,0,1-.09-.27.46.46,0,0,1,.83-.27h0l1.48,2,1.47-2a.48.48,0,0,1,.37-.19.46.46,0,0,1,.46.46A.44.44,0,0,1,154,211Zm-2.66,2.17v0h0v0Zm.07-.15a.28.28,0,0,0-.07.13h0v0h0s0,0,0,0h0v0h0Zm0,.05v0Zm0,0h0Zm0,0h0Zm0,0Zm0,0h0Zm.73,0Zm0,0v0Zm0,0v0Zm0,0v0Zm0,0s0,0,0,0h0v0Zm0,0h0v0Zm0,.05h0Z"/><rect class="cls-12" x="90.13" y="92.14" width="100.78" height="63.07" rx="4.12"/><path class="cls-11" d="M109.27,100.43l1.13,2.94,3.15.16a.69.69,0,0,1,.39,1.22l-2.45,2,.82,3a.69.69,0,0,1-1,.76l-2.64-1.72L106,110.54a.69.69,0,0,1-1-.76l.82-3-2.46-2a.69.69,0,0,1,.4-1.22l3.15-.16,1.13-2.94A.68.68,0,0,1,109.27,100.43Z"/><path class="cls-11" d="M125.21,100.43l1.13,2.94,3.15.16a.69.69,0,0,1,.4,1.22l-2.46,2,.82,3a.69.69,0,0,1-1,.76l-2.65-1.72-2.64,1.72a.69.69,0,0,1-1-.76l.82-3-2.45-2a.69.69,0,0,1,.39-1.22l3.15-.16,1.13-2.94A.68.68,0,0,1,125.21,100.43Z"/><path class="cls-11" d="M141.16,100.43l1.13,2.94,3.15.16a.69.69,0,0,1,.39,1.22l-2.45,2,.82,3a.69.69,0,0,1-1,.76l-2.64-1.72-2.65,1.72a.69.69,0,0,1-1-.76l.81-3-2.45-2a.69.69,0,0,1,.4-1.22l3.15-.16,1.13-2.94A.68.68,0,0,1,141.16,100.43Z"/><path class="cls-11" d="M157.1,100.43l1.13,2.94,3.15.16a.69.69,0,0,1,.4,1.22l-2.46,2,.82,3a.69.69,0,0,1-1,.76l-2.64-1.72-2.64,1.72a.69.69,0,0,1-1-.76l.82-3-2.45-2a.69.69,0,0,1,.39-1.22l3.15-.16,1.13-2.94A.68.68,0,0,1,157.1,100.43Z"/><path class="cls-11" d="M173.05,100.43l1.12,2.94,3.15.16a.69.69,0,0,1,.4,1.22l-2.45,2,.82,3a.69.69,0,0,1-1,.76l-2.64-1.72-2.65,1.72a.69.69,0,0,1-1-.76l.82-3-2.45-2a.69.69,0,0,1,.4-1.22l3.15-.16,1.12-2.94A.69.69,0,0,1,173.05,100.43Z"/><path class="cls-10" d="M180,125.1H137.73a4,4,0,0,1-4-4h0a4,4,0,0,1,4-4H180a4,4,0,0,1,4,4h0A4,4,0,0,1,180,125.1Z"/><path class="cls-10" d="M180,135.92H137.73a4.05,4.05,0,0,1-4-4h0a4.05,4.05,0,0,1,4-4.05H180a4.05,4.05,0,0,1,4,4.05h0A4.05,4.05,0,0,1,180,135.92Z"/><path class="cls-10" d="M156,146.73H137.73a4,4,0,0,1-4-4h0a4,4,0,0,1,4-4.05H156a4.05,4.05,0,0,1,4,4.05h0A4.05,4.05,0,0,1,156,146.73Z"/><path class="cls-10" d="M142.29,145.09H140a.44.44,0,0,1-.38-.29.41.41,0,0,1,0-.16v-4h0a.47.47,0,0,1,.46-.46h2a1.41,1.41,0,0,1,1.16,2.19h0l-.06.07.06-.07A1.51,1.51,0,0,1,142.29,145.09Zm.49-1.83a.73.73,0,0,0-.7-.27h-.84a.45.45,0,0,1-.45-.45h0a.46.46,0,0,1,.41-.45h.87a.49.49,0,0,0,0-1h-1.55v3.07h1.75A.59.59,0,0,0,142.78,143.26ZM142,143h0Zm.17,0a1.4,1.4,0,0,0,.83-.34A1.4,1.4,0,0,1,142.16,143Zm.05-.91h0Zm.89.46,0,.05Zm0,0,0-.05Z"/><path class="cls-10" d="M148.76,140.62v2.62h0v0a2.14,2.14,0,0,1-4.26,0v0h0v-2.62a.46.46,0,0,1,.92,0v2.64a1.16,1.16,0,0,0,1.21,1h0a1.17,1.17,0,0,0,1.21-1h0v0h0v-2.62a.46.46,0,0,1,.92,0Z"/><path class="cls-10" d="M154,140.92l-1.76,2.42v1.3a.45.45,0,0,1-.38.45h-.14a.46.46,0,0,1-.39-.45v-1.3l-1.76-2.42h0a.39.39,0,0,1-.09-.26.46.46,0,0,1,.46-.46.44.44,0,0,1,.37.19h0l1.48,2,1.47-2a.46.46,0,0,1,.83.27A.39.39,0,0,1,154,140.92Zm-2.66,2.17v0h0Zm.07-.15a.31.31,0,0,0-.07.14h0v0h0v0h0s0,0,0,0h0v0h0Zm0,.06h0Zm0,0v0Zm0,0v0Zm0,0Zm0,0h0Zm.73,0Zm0,0v0Zm0,0v0Zm0,0v0Zm0,0a.06.06,0,0,1,0,0h0v0Zm0,.05h0v0h0Zm0,0h0v0Z"/><rect class="cls-10" x="98.56" y="117.01" width="29.73" height="29.73" rx="2.93"/><path class="cls-10" d="M118.45,120.63a3.22,3.22,0,0,0-1.4-.31h-.94v.05a2.69,2.69,0,0,1-5.38,0s0,0,0-.05h-.95a3.17,3.17,0,0,0-1.39.31L101.16,124l2.29,5.43,3-1.14v14.3h14v-14.3l3,1.14,2.29-5.43Z"/><rect class="cls-1" x="80.65" y="52.23" width="119.73" height="210.37"/><path class="cls-13" d="M211.17,46.33c-3.67-9.68-9.49-10.91-17.52-10.91H87.38c-8,0-13.84,1.23-17.52,10.91L57.39,78.67H223.65Z"/><polygon class="cls-14" points="92.28 35.42 80.44 78.67 104.07 78.67 111.85 35.42 92.28 35.42"/><polygon class="cls-14" points="188.76 35.42 169.18 35.42 176.96 78.67 200.59 78.67 188.76 35.42"/><polygon class="cls-14" points="149.75 35.42 131.28 35.42 127.56 78.67 153.48 78.67 149.75 35.42"/><path class="cls-15" d="M80.44,78.67c0,6,5.29,10.89,11.82,10.89s11.81-4.88,11.81-10.89Z"/><path class="cls-15" d="M127.56,78.67c0,6,5.79,10.89,12.93,10.89s12.94-4.88,12.94-10.89Z"/><path class="cls-15" d="M200.59,78.67c0,6-5.29,10.89-11.82,10.89S177,84.68,177,78.67Z"/><path class="cls-9" d="M104.07,78.67c0,6,5.26,10.89,11.75,10.89s11.74-4.88,11.74-10.89Z"/><path class="cls-9" d="M57.39,78.67c0,6,5.16,10.89,11.52,10.89s11.53-4.88,11.53-10.89Z"/><path class="cls-9" d="M177,78.67c0,6-5.26,10.89-11.74,10.89s-11.74-4.88-11.74-10.89Z"/><path class="cls-9" d="M223.65,78.67c0,6-5.16,10.89-11.53,10.89s-11.53-4.88-11.53-10.89Z"/><path class="cls-3" d="M267.28,13.06A18.12,18.12,0,0,0,242.5,36.74l-4.07,5.76a.52.52,0,0,0,.54.8l6.85-1.65a18.1,18.1,0,0,0,29.26-4.16A18.13,18.13,0,0,0,267.28,13.06Z"/><path class="cls-16" d="M268.32,25.93a5.39,5.39,0,0,0-10.2-1.44,5.4,5.4,0,1,0-8.69,6.14l7.7,7.7a1.39,1.39,0,0,0,2,0l7.7-7.7A5.42,5.42,0,0,0,268.32,25.93Z"/><path class="cls-3" d="M286.47,79.12a20.54,20.54,0,0,0-23.67,29.16l-4.88,8.66a.47.47,0,0,0,.57.68l9.1-3.19a20.24,20.24,0,0,0,10.68,4.88,20.55,20.55,0,0,0,8.2-40.19Z"/><rect class="cls-13" x="271.88" y="99.1" width="18.6" height="11.6"/><rect class="cls-14" x="278.28" y="99.1" width="5.8" height="11.6"/><rect class="cls-17" x="271.88" y="99.1" width="18.6" height="1.32"/><path class="cls-14" d="M281.18,93.76s-4.88-.11-6.23-.71-1.76-1.71-1.34-2.66c.48-2.43,4-4,5-2.91A9.28,9.28,0,0,1,281.18,93.76Z"/><path class="cls-13" d="M281.18,93.76s-4.88-.11-6.23-.71-1.76-1.71-1.34-2.66a2,2,0,0,1,2.87-.79C277.83,90.2,281.18,93.76,281.18,93.76Z"/><path class="cls-14" d="M281.19,93.76s4.89-.11,6.23-.71,1.76-1.71,1.34-2.66c-.48-2.43-4-4-5-2.91A9.28,9.28,0,0,0,281.19,93.76Z"/><path class="cls-13" d="M281.19,93.76s4.89-.11,6.23-.71,1.76-1.71,1.34-2.66a2,2,0,0,0-2.87-.79C284.54,90.2,281.19,93.76,281.19,93.76Z"/><rect class="cls-14" x="270.69" y="93.39" width="20.99" height="5.88"/><path class="cls-14" d="M282.31,92.64a1.13,1.13,0,1,1-1.13-1.13A1.12,1.12,0,0,1,282.31,92.64Z"/><path class="cls-3" d="M47.52,60.5,44,54a17.8,17.8,0,0,0-11.34-26.7,17.79,17.79,0,1,0,7.53,31.08l6.94,2.57A.32.32,0,0,0,47.52,60.5Z"/><path class="cls-13" d="M19.28,40.63a5.05,5.05,0,0,1,1-3.49A3.59,3.59,0,0,1,23.12,36,3.69,3.69,0,0,1,26,37.13a5.07,5.07,0,0,1,1,3.5,5,5,0,0,1-1,3.48,3.59,3.59,0,0,1-2.8,1.14,3.69,3.69,0,0,1-2.86-1.13A5,5,0,0,1,19.28,40.63Zm2.62,0a4.59,4.59,0,0,0,.39,2.3,1,1,0,0,0,1.67,0,4.74,4.74,0,0,0,.38-2.3A4.62,4.62,0,0,0,24,38.32a1,1,0,0,0-.84-.44,1,1,0,0,0-.83.43A4.55,4.55,0,0,0,21.9,40.6ZM25,54.48H25a1.08,1.08,0,0,1-1-1.56L32.22,36.6a1.07,1.07,0,0,1,1-.6h0a1.08,1.08,0,0,1,1,1.57L26,53.89A1.07,1.07,0,0,1,25,54.48Zm6.09-4.6a5,5,0,0,1,1-3.48A3.63,3.63,0,0,1,35,45.26a3.61,3.61,0,0,1,2.83,1.14,5,5,0,0,1,1,3.48,5,5,0,0,1-1,3.5A3.58,3.58,0,0,1,35,54.52a3.66,3.66,0,0,1-2.86-1.14A5,5,0,0,1,31.1,49.88Zm2.62,0a4.48,4.48,0,0,0,.39,2.28.93.93,0,0,0,.82.45,1,1,0,0,0,.83-.43,4.59,4.59,0,0,0,.39-2.3,4.69,4.69,0,0,0-.38-2.29,1,1,0,0,0-.84-.43.91.91,0,0,0-.82.43A4.55,4.55,0,0,0,33.72,49.87Z"/><path class="cls-18" d="M229.49,108.88a10.17,10.17,0,0,1,13.35-2.37c4.91,2.87,6.2,8.33,4.53,13.9"/><path class="cls-19" d="M248,115.22c-3.15-2.52-12.41-7.11-17.1-7.78a11.58,11.58,0,0,0-1.45,1.44l17.88,11.53A15.26,15.26,0,0,0,248,115.22Z"/><path class="cls-18" d="M248.28,117.66c-.68-.69-1.4-1.34-2.15-2a54.07,54.07,0,0,0-12.47-7.47c-4.15-1.89-7.06-3.36-11.6-3.74-2.64-.21-7,.25-8.38,3-1.53,3.06-.08,7.13,2.07,9.24a55.46,55.46,0,0,0,9,6.94c7.22,4.51,16.1,10.47,28.15,10.46,1.31,0,2.09-1.62,2.29-2.91a8,8,0,0,0-.56-3.83A26.2,26.2,0,0,0,248.28,117.66Z"/><path class="cls-6" d="M254,138.22a11,11,0,0,1-.6,8.28,11.29,11.29,0,0,1-9.33,5.87c-2.38.11-4-.94-6.13-1.8a17.94,17.94,0,0,1-5.64-3.31,5,5,0,0,0-1.77-1.26,6.55,6.55,0,0,0-2.49.08c-5.9.62-7.74-1.6-9.4-6.83s-.73-11.34,1.66-16.27c2.08-4.3,5.17-9.17,8.63-11.45,4.46-.88,11.22,3.66,15.34,7.77.6,2.09.91,4.29,1.55,6.36,1.28,4.12,4.57,6.11,6.77,9.52A11.69,11.69,0,0,1,254,138.22Z"/><path class="cls-20" d="M238.22,191.54c0,.9-4.16,36.37-2.46,52.49,1.22,11.63-1.75,30.76-2,38.84-.61,1.42-3.6.27-3.6.27s-7.87-40.32-10.79-57c-2.4-13.69-3.75-38.41,1.4-54"/><path class="cls-21" d="M235.76,244a134,134,0,0,1-.23-17.82,53.13,53.13,0,0,0-7.45,7.91,7.9,7.9,0,0,0-2,4.38c-.08,2.73,1.45,2.36,3.27,4.4,3.53,3.95,5.21,7.26,6.13,19.82h0A109.78,109.78,0,0,0,235.76,244Z"/><path class="cls-22" d="M234.53,283.75a5.58,5.58,0,0,1,.67,1.95c-.15,1.64-.24,2.76-.24,2.76l-.86,0-.25-1.34a15.66,15.66,0,0,0-4.63,1.57c-1.13.61-6.25.49-7.1.11a.87.87,0,0,1-.32-1.52c.33-.31,6-2.47,6-2.47"/><path class="cls-20" d="M231.07,281.33c-.52,1-7.37,5-6.93,5.27s2.72.36,5.84-.49c2.85-.77,4.47-1.64,4.58-2.25l-1-2.86"/><path class="cls-22" d="M293,260.07a5.54,5.54,0,0,1,1.85.89l1.8,2.11-.57.64-1.14-.76a15.58,15.58,0,0,0-2.13,4.39c-.36,1.24-4,4.79-4.91,5.13a.88.88,0,0,1-1.31-.84c0-.45,2.45-6,2.45-6"/><path class="cls-20" d="M249,188c.33.84,6.25,33.52,16,41.87,8.86,7.64,21.25,24.3,26.84,30.15.59,1.43-2.33,2.74-2.33,2.74s-36.82-19.79-48.15-32.4C232.05,220,225,191.56,224.92,175.19"/><path class="cls-21" d="M265,229.83a14.54,14.54,0,0,1-1.5-1.53,42.19,42.19,0,0,0-8.47,7.76c4.34.37,8.85-1,13,.31a19.07,19.07,0,0,1,4.3,2.11c.91.56,1.81,1.14,2.71,1.73A108.83,108.83,0,0,0,265,229.83Z"/><path class="cls-20" d="M288.82,260.83c.33,1.06-1.64,8.73-1.12,8.63s2.16-1.68,3.75-4.5c1.46-2.56,2-4.33,1.62-4.84l-2.68-1.36"/><path class="cls-23" d="M220.82,166.48c-8.8,10.79-7.54,46.13-7,72.54,8.58,3.66,21.73,5.43,31.9,3.64s15.78-5.9,23.83-12.37c-6.17-35.59-11.85-54.35-30.55-63.81"/><path class="cls-24" d="M239,166.48l-12-.36-2.9,3.78c12.74,4.28,20.74,9.22,27.9,18.72,6.78,9,10.79,22.8,16.1,33.67C262.44,191.85,256.26,175.2,239,166.48Z"/><polygon class="cls-16" points="275.29 171.71 292.51 158.35 308.03 185.64 290.71 205.09 279.68 204.92 275.29 171.71"/><path class="cls-25" d="M282.59,151.48c4.82,1.68,8,11.74,8,11.74"/><path class="cls-20" d="M260.61,158.68s6.27,2.91,10.76,2.4c10.69-1.24,23.43-7.13,23.43-7.13l-2-2.32s-21.31,1.54-23.46,1c-1.8-.46-11.63-7.17-11.63-7.17"/><path class="cls-20" d="M291.42,152.39a24.92,24.92,0,0,1,6.18-4.23c.24-.12.6-.19.73,0s-.63.74-1,1.07c1.49-.64,4.63-1.52,4.68-1.1s-2.66,1.21-4,1.82c1.58-.39,4.72-1.31,4.81-.76s-3,1.15-4.52,1.72c1.51-.19,4.38-.5,4.57-.17s-.56.41-.79.46c-1.19.25-2.18.4-3.37.65,1.29-.05,3.95,0,3.81.57s-2.77,0-5.37,1.36a6.86,6.86,0,0,1-2.71.88,3.22,3.22,0,0,1-2.44-1"/><path class="cls-20" d="M297.15,149.8a2.59,2.59,0,0,0-.82,1.2,6.12,6.12,0,0,1-.64,1.31,2.27,2.27,0,0,1-1.29.85"/><path class="cls-25" d="M282.59,151.48c-8.82-2-5.22,15-2.27,19.7"/><polygon class="cls-26" points="279.68 204.92 275.29 171.71 290.71 205.09 279.68 204.92"/><path class="cls-20" d="M217.63,147.64c-19.71,9.56-31.52,7.1-45.63-.54l-1.35-2.24s20,2,27.26-.8c6.53-2.51,15.84-5.78,22.74-8.26"/><path class="cls-27" d="M170.06,147a1.69,1.69,0,0,1-1.64.3,3.52,3.52,0,0,1-1.36-.93.65.65,0,0,1-.59.33,3.55,3.55,0,0,1-.92,0,1.36,1.36,0,0,1-.62-.25c-.15-.12-.77-.66-.22-.9a.74.74,0,0,1-.21-.59.45.45,0,0,1,.44-.4.43.43,0,0,1-.24-.41c0-.16.07-.48.66-.56a2.15,2.15,0,0,0-1.25-.11c-.2.06-1.52.19-1.7-.15s1-.6,1.69-.76a4.83,4.83,0,0,1,2.53.11c-.22-.33-1-.47-.93-1.08s1.78.33,2.53.85a21.36,21.36,0,0,1,2.49,2.19l8.65.82s7.43,7.49,7.17,7.35C181.81,152.43,170.06,147,170.06,147Z"/><path class="cls-22" d="M200.34,143.14a11.09,11.09,0,0,0,.43,5.65,15.82,15.82,0,0,0,2.68,4.42s15.75-5.2,16.78-5.16c4-2.41,11.07-12.8,8.65-13.39C219.89,131.9,208.06,140,200.34,143.14Z"/><path class="cls-22" d="M267.19,151.48s-8.58-6.21-16.68-10.95a35.88,35.88,0,0,0-9.12-3.26l-.87,15.59s2.54,3.81,6,2c2.83-1.43,4.7.93,16.5,5C263.66,155.36,267.19,151.48,267.19,151.48Z"/><path class="cls-22" d="M247.91,147.5a15.79,15.79,0,0,0-4-6.81c-1.08-1.07-1.08-2.95-2.53-3.42s-4.28.48-5.82.46q-3.37-.06-6.72-.42a8.94,8.94,0,0,0-3.46,0c-2.49.71-5.75,3.71-7,5.81-1.61,2.61-3,5.71-2.12,8.83.66,2.39,2.28,4.11,2.28,6.57,0,1.85.59,6.2-.77,7.56-2.23,2.23,1,3.74,6.1,4.65a35.93,35.93,0,0,0,9.55.17c1.88-.27,5.81-.69,7.16-2.17a2.15,2.15,0,0,0,.78-1.31c.07-7,2-13.39,5.86-17.91"/><path class="cls-28" d="M229.26,148.1c-3.67,6.53-4,15.38-3.08,22.67,0,.18.29.19.29,0,.1-7.63-.46-15.49,3-22.57.06-.12-.11-.22-.17-.1Z"/><path class="cls-28" d="M230.48,151.36a.49.49,0,0,0,0-1,.49.49,0,0,0,0,1Z"/><path class="cls-28" d="M228.88,158.35a.49.49,0,0,0,0-1,.49.49,0,0,0,0,1Z"/><path class="cls-28" d="M228.41,167a.49.49,0,0,0,0-1,.49.49,0,0,0,0,1Z"/><path class="cls-29" d="M267.19,151.48s-8.58-6.21-16.68-10.95a35.88,35.88,0,0,0-9.12-3.26c-1.45,1.45-1.57,3.37-1.77,5.36a42.44,42.44,0,0,1-1.44,8.15,10.23,10.23,0,0,1-1.38,3.3,12.65,12.65,0,0,1-2.78,2.83c-.65.47-1.42,1-1.38,1.84,0,.64.57,1.11,1,1.59a7.16,7.16,0,0,1,1.53,5.17c-.12,1.88-.87,3.54-1.26,5.34,4.81-.65,6.59-1.49,7.39-2.29,1.06-1.06.63-2.29.79-2.78,1.8-5.45,2.34-7.43,5.06-11.13,2.56-.86,4.94,1.44,15.92,5.19C263.66,155.36,267.19,151.48,267.19,151.48Z"/><path class="cls-30" d="M243.94,156.57a12.71,12.71,0,0,1,1.61-1c.56-.29,1.18-.49,1.71-.83a.15.15,0,0,0-.12-.27,7.3,7.3,0,0,0-3.34,1.93c-.09.08,0,.25.14.17Z"/><path class="cls-20" d="M229.08,116c-2.18,2.8-7.47,11.28-1.58,13.24a8.09,8.09,0,0,0,6.7-1.25c2.68-1.88,6.3-5.61,4.91-9.14a11.1,11.1,0,0,0-2.1-2.8,7.71,7.71,0,0,0-2.35-2.34,3.69,3.69,0,0,0-4.18,1.19"/><path class="cls-20" d="M231.47,128.74s-.91,5.46-1.27,5.82-3.38-.17-3.38-.17,0,8.25,2.53,13.76a38.3,38.3,0,0,1,12-10.88s-3.25-1-3.7-1.94-2.1-12.66-2.1-12.66"/><path class="cls-31" d="M232.74,121.88c-.17.17-.31.37-.47.55a.41.41,0,1,0,.65.51,1.75,1.75,0,0,0,.36-.84c0-.29-.36-.4-.54-.22Z"/><path class="cls-31" d="M228.33,118.82c-.17.17-.31.37-.47.56a.41.41,0,1,0,.65.5,1.66,1.66,0,0,0,.36-.84c0-.29-.36-.39-.54-.22Z"/><path class="cls-31" d="M234.55,120.22a2,2,0,0,1,1,1.55,7.4,7.4,0,0,0-2-1.66C233.91,119.85,234.27,120.08,234.55,120.22Z"/><path class="cls-31" d="M229.93,117a.62.62,0,0,1,.32.75,5,5,0,0,0-1.63-1A1.5,1.5,0,0,1,229.93,117Z"/><path class="cls-11" d="M226.17,124.77c.3.1.24.53.89.87.9.47,1.09.19,1.19.39a1.29,1.29,0,1,1-2.08-1.26Z"/><path class="cls-20" d="M229.08,120.83a17.71,17.71,0,0,0-1.8,1.67.9.9,0,0,0-.21.3c-.31.77,1.24.91,1.66,1"/><path class="cls-6" d="M241,118.63a13.16,13.16,0,0,0-5.45-5l-2.87-.52c-2.14.11-3.79,0-5.3,1.54a4.63,4.63,0,0,0-.94,1.22,6.55,6.55,0,0,0-.13,4,4,4,0,0,1,3.82-3.19,9.7,9.7,0,0,1,1.85-1.28,6.16,6.16,0,0,0-1.05,1.33,4.17,4.17,0,0,1,2.24,1.08l1,1a13.37,13.37,0,0,1,1.81-1.27,14.28,14.28,0,0,0-1.19,1.89,8.72,8.72,0,0,1,2.11,3.62,9.72,9.72,0,0,0,.79,2.39,1.89,1.89,0,0,0,2.12,1,2.09,2.09,0,0,0,.86-.7A6.64,6.64,0,0,0,241,118.63Z"/><polygon class="cls-16" points="189.41 253.25 185.8 287.08 218.56 286.97 215.24 253.17 189.41 253.25"/><path class="cls-32" d="M201.87,245.56a4.41,4.41,0,0,1,3.46,1.5c2.31,2.61,1.85,7.68,1.83,7.89a.46.46,0,0,1-.5.43.47.47,0,0,1-.41-.53s.44-4.84-1.58-7.13a3.67,3.67,0,0,0-3.06-1.18,4.17,4.17,0,0,0-3.2,1.56c-1.94,2.4-1.54,6.74-1.54,6.79a.47.47,0,0,1-.4.53.46.46,0,0,1-.5-.43c0-.2-.45-4.81,1.75-7.53a5,5,0,0,1,3.85-1.89Z"/><g class="cls-33"><path class="cls-34" d="M180,265.27H137.73a4,4,0,0,1-4-4h0a4,4,0,0,1,4-4H180a4,4,0,0,1,4,4h0A4,4,0,0,1,180,265.27Z"/><rect class="cls-34" x="133.69" y="267.99" width="50.32" height="8.09" rx="4.05"/><path class="cls-34" d="M156,286.9H137.73a4,4,0,0,1-4-4h0a4,4,0,0,1,4-4.05H156a4.05,4.05,0,0,1,4,4.05h0A4.05,4.05,0,0,1,156,286.9Z"/><rect class="cls-34" x="98.56" y="257.18" width="29.73" height="29.73" rx="2.93"/></g></g></g></svg>